<svg width="450" height="502" viewBox="0 0 450 502" fill="none" xmlns="http://www.w3.org/2000/svg">
<path d="M202.939 498.04C201.339 498.337 199.744 498.662 198.138 498.926C195.109 499.427 192.09 499.876 188.99 499.9C186.309 499.921 183.635 500.461 180.95 500.657C174.933 501.098 168.909 501.333 162.873 500.991C158.054 500.717 153.217 500.615 148.414 500.19C138.109 499.295 127.862 497.83 117.719 495.801C106.214 493.485 94.8035 490.748 83.6203 487.129C74.2959 484.103 65.3563 479.999 56.9829 474.901C55.4468 473.968 54.2092 472.558 52.7851 471.432C49.7533 469.036 47.8519 465.779 45.896 462.558C41.8132 455.837 38.1067 448.923 35.2071 441.603C34.4453 439.681 33.8483 437.693 33.1953 435.728C32.3822 433.29 32.6123 430.782 32.6123 427.92C33.4378 428.288 34.0629 428.47 34.5821 428.815C40.2255 432.583 46.3365 435.598 52.7602 437.785C57.0886 439.249 61.5243 440.398 65.9164 441.671C66.1341 441.735 66.3828 441.709 66.7389 441.734C54.7098 420.765 49.0148 398.475 51.2132 374.238C48.6463 371.549 45.9271 368.763 43.284 365.912C34.4681 356.41 26.863 345.853 20.6423 334.481C11.8956 318.604 5.79311 301.409 2.57465 283.57C1.59206 278.156 1.0992 272.646 0.553488 267.163C0.185695 263.54 0.000963641 259.901 0 256.259C0.00932845 252.061 0.256533 247.845 0.534831 243.647C0.81313 239.449 1.15673 235.276 1.64647 231.111C3.23075 217.628 6.72893 204.625 11.7119 192.012C12.7504 189.387 13.8885 186.796 14.9411 184.177C15.163 183.666 15.2965 183.122 15.336 182.567C15.4915 178.617 15.6215 174.666 15.7262 170.713C15.8677 165.426 15.8988 160.151 16.1305 154.876C16.3621 149.601 16.7523 144.374 17.1162 139.126C17.3696 135.442 17.5701 131.746 17.9946 128.088C18.886 120.387 19.851 112.695 20.8895 105.012C22.1333 95.7506 24.0254 86.6103 26.2409 77.5384C29.3302 64.8983 33.2451 52.5319 38.7022 40.691C42.5891 32.2689 47.1242 24.2464 53.2826 17.2454C58.1629 11.6966 63.7273 7.06499 70.9102 4.77486C75.9585 3.1657 81.086 2.06494 86.4577 2.59822C90.2606 2.97913 93.8038 4.15296 97.2398 5.76678C105.144 9.47795 111.421 15.1854 116.917 21.8553C123.869 30.3022 129.278 39.7021 133.971 49.5374C139.443 61.0068 143.817 72.8974 147.497 85.0509C147.641 85.5282 147.775 86.0086 147.971 86.688C164.779 84.4818 181.637 84.2875 198.559 86.8217C199.917 83.5568 201.215 80.3804 202.563 77.2212C208.335 63.6778 214.931 50.5605 223.026 38.2407C228.468 29.9679 234.497 22.1755 241.758 15.4077C248.213 9.38933 255.365 4.49034 263.991 2.06649C268.233 0.875562 272.542 -0.0168605 276.948 0.000241695C281.32 0.0173439 285.499 1.01082 289.527 2.79878C297.627 6.38557 303.918 12.1008 309.097 19.1593C315.549 27.9514 320.083 37.7276 323.75 47.9345C327.831 59.295 330.733 70.9727 332.923 82.8338C334.531 91.5124 335.857 100.228 336.709 109.016C336.779 109.74 336.95 110.454 337.099 111.323C338.261 109.097 339.248 106.935 340.47 104.917C344.453 98.3455 348.943 92.1514 354.478 86.772C355.475 85.8034 356.56 85.012 358.045 84.8488C359.444 84.6933 360.511 85.1597 361.387 86.1672C361.843 86.687 362.255 87.2434 362.619 87.8307C365.497 92.523 369.254 96.4891 372.939 100.527C376.695 104.642 381.388 106.926 386.776 107.976C388.255 108.263 389.749 108.51 391.192 108.925C393.151 109.49 394.674 108.846 395.876 107.38C396.745 106.305 397.525 105.161 398.208 103.96C398.986 102.601 399.754 101.209 400.324 99.7525C402.05 95.3495 404.698 91.559 407.969 88.2148C410.312 85.8189 415.264 82.0518 418.507 81.6227C417.444 82.5462 416.536 83.3546 415.609 84.1398C412.125 87.0938 410.132 90.6697 410.157 95.4117C410.169 98.0749 409.642 100.765 409.151 103.403C408.244 108.262 407.277 113.112 406.161 117.926C405.197 122.093 403.434 125.992 401.727 129.907C399.979 133.916 396.703 135.275 392.729 134.977C387.092 134.555 381.577 133.375 376.319 131.186C373.676 130.089 371.375 128.461 369.156 126.704C366.45 124.56 363.782 122.369 361.072 120.23C360.186 119.53 359.234 118.908 358.286 118.293C355.691 116.606 353.727 116.721 351.568 119.013C350.003 120.641 348.635 122.447 347.493 124.395C343.996 130.519 341.306 136.989 339.587 143.859C338.993 146.23 339.276 148.609 339.276 150.984C339.249 156.522 339.268 162.059 339.267 167.595C339.267 168.099 339.246 168.603 339.232 169.105C339.11 173.312 338.988 177.519 338.865 181.725C338.877 182.01 338.903 182.295 338.945 182.578C339.71 182.216 340.37 181.886 341.045 181.586C344.442 180.08 347.802 179.921 351.165 181.756C354.722 183.696 357.796 186.265 360.876 188.856C362.897 190.549 364.918 192.253 367.078 193.746C369.489 195.41 372.232 196.216 375.2 196.389C377.998 196.545 380.116 195.375 381.719 193.301C382.853 191.8 383.82 190.181 384.604 188.471C386.375 184.699 387.403 180.655 387.905 176.558C388.561 171.204 390.609 166.418 393.089 161.753C394.499 159.109 395.985 156.494 397.442 153.867L397.803 154.03C397.683 154.472 397.573 154.918 397.442 155.356C395.999 160.221 394.554 165.084 393.107 169.948C392.117 173.245 392.241 176.648 392.117 180.027C392.047 181.975 392.117 183.928 392.103 185.879C392.075 192.802 391.383 199.659 389.513 206.332C386.453 217.255 380.016 225.61 370.015 231.077C366.785 232.84 363.266 233.644 359.551 233.795C356.997 233.897 354.458 234.393 351.919 234.766C351.376 234.847 350.856 235.127 350.346 235.36C349.688 235.662 349.52 236.201 349.568 236.915C349.831 240.914 350.179 244.913 350.268 248.916C350.366 253.373 350.399 257.846 350.133 262.287C349.693 269.868 348.659 277.403 347.04 284.823C346.232 288.498 345.224 292.13 344.31 295.784C344.237 296.081 344.183 296.382 344.082 296.863C344.414 296.835 344.644 296.863 344.839 296.793C350.641 294.68 356.686 293.528 362.703 292.254C369.884 290.74 376.784 288.436 382.927 284.346C392 278.304 397.663 269.931 399.373 259.073C399.791 256.419 399.911 253.717 400.15 251.037C400.572 246.363 400.598 241.632 401.73 237.053C403.087 231.562 405.935 226.909 409.961 222.915C416.038 216.885 422.966 212.066 430.483 208.033C433.019 206.674 435.74 205.654 437.965 203.723C439.417 202.463 440.712 201.154 441.304 199.268C441.967 197.162 443.145 195.304 444.137 193.35C445.95 189.774 447.491 186.062 449.142 182.406C449.328 181.992 449.496 181.571 450 181.26C449.431 183.424 448.988 185.633 448.256 187.742C447.435 190.1 447.209 192.473 447.198 194.945C447.183 198.151 446.685 201.291 445.488 204.321C444.131 207.756 442.04 210.494 439.002 212.652C430.199 218.908 423.75 227.097 419.345 236.949C417.116 241.935 414.681 246.831 412.425 251.805C410.248 256.603 408.252 261.486 406.029 266.264C404.026 270.564 403.011 275.168 401.565 279.635C399.211 286.909 397.084 294.288 393.275 300.986C389.21 308.138 385.191 315.325 379.833 321.634C373.162 329.478 364.839 334.547 354.696 336.436C349.217 337.457 343.693 338.233 338.186 339.108C332.795 339.97 327.517 341.436 322.454 343.477C321.9 343.699 321.303 344.046 320.955 344.506C318.991 347.11 317.099 349.768 315.123 352.487C317.107 353.701 319.134 354.819 321.031 356.126C323.173 357.616 325.356 358.64 328.052 358.899C332.354 359.309 336.278 361.105 339.988 363.252C346.28 366.895 353.135 368.451 360.293 368.864C363.157 369.031 365.937 368.325 368.482 367.025C372.726 364.856 376.159 361.762 378.183 357.373C378.908 355.801 379.262 354.048 379.687 352.352C380.542 348.931 381.594 345.59 383.613 342.642C386.117 338.984 389.545 336.498 393.706 335.119C395.664 334.464 397.539 333.581 399.29 332.487C399.865 332.116 400.51 331.868 401.186 331.76C399.376 334.212 397.503 336.621 395.78 339.133C394.802 340.592 393.942 342.127 393.208 343.723C391.523 347.291 389.659 350.806 389.011 354.761C388.718 356.549 388.602 358.367 388.323 360.158C387.826 363.37 387.423 366.612 386.672 369.766C386.247 371.54 385.479 373.214 384.412 374.693C382.19 377.722 379.876 380.73 377.26 383.4C373.472 387.257 368.601 389.103 363.267 389.69C360.853 389.958 358.419 390.062 355.826 390.253C356.115 390.738 356.361 391.206 356.659 391.64C361.868 399.218 366.299 407.235 370.147 415.583C370.848 417.107 371.217 418.786 371.711 420.403C372.086 421.625 371.643 422.514 370.666 423.338C365.428 427.753 360.179 432.158 355.039 436.687C349.641 441.444 343.828 445.589 337.703 449.35C331.061 453.427 324.61 457.821 317.915 461.804C314.097 464.077 309.957 465.807 305.959 467.779C304.613 468.443 303.26 469.097 301.917 469.756C301.586 469.091 301.267 468.418 300.919 467.76C299.855 465.75 298.094 464.576 296.021 463.873C294.381 463.31 293.019 464.167 291.581 464.867C285.895 467.636 280.303 468.242 274.592 464.588C270.833 462.183 266.604 461.874 262.271 463.267C255.438 465.462 251.217 469.952 249.788 477.031C249.536 478.275 249.227 479.519 248.944 480.762C247.583 478.068 246.581 475.369 247.117 472.315C247.72 468.873 248.92 465.716 251.716 463.497C256.225 459.921 261.282 457.541 267.158 457.245C269.286 457.14 271.489 457.294 273.532 456.794C280.87 454.999 286.099 449.714 286.385 441.402C286.567 436.152 284.858 431.452 281.587 427.186C281.175 427.66 280.786 428.06 280.449 428.5C278.772 430.695 277.159 432.943 275.427 435.093C272.601 438.604 269.188 441.278 264.672 442.3C261.64 442.985 258.572 442.921 255.499 442.867C253.633 442.838 251.711 442.746 249.916 443.144C244.583 444.33 240.264 447.242 236.817 451.473C236.425 451.953 235.943 452.36 235.501 452.8L235.438 452.743C235.624 452.284 235.749 451.779 236.01 451.375C238.427 447.693 241.445 444.442 244.937 441.759C248.428 439.081 252.4 437.394 256.419 435.76C259.218 434.619 261.965 433.321 264.258 431.312C267.699 428.298 270.395 424.677 272.498 420.617C274.404 416.939 276.321 413.265 278.174 409.56C279.221 407.467 280.898 406.225 283.15 405.984C286.598 405.605 288.699 403.576 290.202 400.698C290.763 399.627 290.849 398.504 290.25 397.078C289.504 398.167 288.944 399.07 288.313 399.914C287.055 401.595 285.687 403.265 283.467 403.543C279.857 403.995 277.601 406.073 275.936 409.12C273.328 413.893 269.872 418.018 265.943 421.751C261.797 425.684 256.77 427.906 251.242 428.902C248.708 429.348 246.126 429.461 243.563 429.24C241.012 429.024 238.496 428.647 235.92 428.918C232.108 429.316 228.558 430.317 225.435 432.679C223.244 434.333 221.535 436.392 219.89 438.539C219.764 438.703 219.444 438.719 219.214 438.805C220.965 435.504 222.945 432.312 224.267 428.585C223.664 428.668 223.241 428.702 222.83 428.787C215.338 430.342 207.771 431.455 200.131 431.824C192.668 432.184 185.187 432.278 177.723 431.64C171.794 431.135 165.854 430.748 159.941 430.104C150.398 429.05 141.022 426.814 132.03 423.447C120.55 419.21 109.44 414.03 98.8148 407.958C92.3968 404.274 85.9928 400.528 79.8469 396.416C73.3807 392.088 67.2302 387.29 60.9412 382.695C60.7551 382.686 60.5685 382.691 60.3831 382.711C60.2898 383.518 60.1576 384.331 60.181 385.138C60.2743 388.457 60.2867 391.788 60.5774 395.088C60.8962 398.697 61.3455 402.309 61.986 405.874C64.3026 418.77 69.6291 430.515 76.257 441.679C78.7446 445.868 81.865 449.68 84.6806 453.674C85.4953 454.831 86.6178 455.835 86.6645 457.405L85.1268 457.418L84.4443 457.377C75.9849 456.801 67.9236 454.546 60.1903 451.214C55.5463 449.214 51.1277 446.693 46.6081 444.405L45.6503 443.794L45.484 444.014C45.6768 444.311 45.868 444.61 46.0608 444.908L46.1214 445.002C46.1846 445.305 46.273 445.601 46.3857 445.889C51.0111 455.265 56.4916 464.103 62.9951 472.295C63.7444 473.242 64.8141 474.015 65.876 474.627C72.933 478.67 80.5263 481.468 88.227 483.99C88.5643 484.1 88.9561 484.048 89.3153 484.072L89.3448 484.082L90.4596 484.495C91.2836 484.798 92.0936 485.15 92.9332 485.395C102.639 488.227 112.5 490.388 122.473 492.05C130.511 493.39 138.574 494.561 146.712 495.099C152.968 495.512 159.226 496.013 165.49 496.187C175.227 496.451 184.96 496.148 194.649 495.005C197.634 495.414 200.273 496.765 202.939 498.04ZM319.72 61.893C319.731 61.851 319.758 61.8059 319.75 61.7702C319.727 61.6939 319.698 61.6191 319.666 61.5463C319.625 61.2426 319.56 60.9427 319.472 60.6492C317.101 54.6343 314.371 48.7675 311.295 43.0806C306.942 34.9959 302.278 27.1181 296.37 20.0502C295.476 18.9821 294.459 18.0166 293.498 17.0045C293.372 17.3154 293.4 17.4942 293.487 17.6372C294.333 19.0365 295.131 20.4591 296.048 21.8039C301.911 30.383 306.822 39.4814 311.059 48.9622C314.888 57.5304 317.653 66.4173 319.672 75.5747C320.515 79.404 321.894 83.1152 323.029 86.8792L323.161 87.6348C323.567 85.7419 323.806 83.817 323.875 81.8823C323.955 79.8985 324.217 77.8509 323.85 75.9354C323.18 72.4543 322.147 69.037 321.176 65.6197C320.809 64.3308 320.187 63.1134 319.681 61.8634L319.72 61.893ZM319.551 447.194L319.901 447.607L319.719 447.052C319.066 445.361 318.32 443.697 317.778 441.97C316.429 437.66 310.238 437.051 307.626 438.965C306.238 439.983 305.885 441.499 305.434 443.007C305.123 444.027 305.454 444.681 306.266 445.14C307.345 444.448 308.253 443.542 309.33 443.24C310.506 442.895 311.744 442.816 312.955 443.01C314.165 443.204 315.317 443.666 316.326 444.361C317.506 445.154 318.483 446.242 319.551 447.194ZM292.794 349.189C292.69 349.155 292.519 349.062 292.483 349.094C291.009 350.784 289.543 352.481 288.084 354.186C287.882 354.313 287.692 354.46 287.517 354.623C284.462 358.07 282.814 362.305 280.965 366.42C280.188 368.131 279.549 369.906 278.846 371.652C279.796 370.791 280.471 369.81 281.124 368.815C284.439 363.751 288.148 359.003 292.579 354.867C296.81 350.92 301.376 347.384 306.115 344.066C310.745 340.799 316.013 338.548 321.574 337.459C328.466 336.095 335.314 334.505 342.189 333.052C348.926 331.63 355.405 329.512 361.293 325.873C364.974 323.601 368.671 321.376 371.364 317.808C376.055 311.589 380.931 305.509 383.277 297.898C383.455 297.32 383.65 296.746 383.97 295.765C382.684 296.843 381.755 297.67 380.778 298.433C375.634 302.452 370.452 306.424 365.332 310.473C357.695 316.513 349.262 320.918 339.792 323.328C336.582 324.144 333.449 325.259 330.279 326.237C328.171 326.827 326.065 327.418 323.959 328.009C320.103 329.097 316.244 330.186 312.71 332.129C305.03 336.359 298.994 342.583 292.823 348.636C292.71 348.749 292.763 349.034 292.738 349.237L292.794 349.189ZM282.265 421.796C284.056 421.129 285.841 420.925 287.764 421.345C289.354 421.691 290.988 421.788 292.607 421.631C296.183 421.259 299.235 419.838 301.063 416.474C301.451 415.765 302.052 415.176 302.481 414.485C304.251 411.635 305.044 408.577 304.529 405.202C304.136 402.621 303.542 400.045 304.131 397.403C304.223 396.991 304.143 396.542 304.143 396.11C303.807 396.468 303.575 396.911 303.473 397.392C303.046 399.854 302.729 402.335 302.229 404.782C301.763 407.106 301.311 409.446 299.978 411.511C298.498 413.809 296.497 414.558 293.854 414.154C292.246 413.913 290.62 413.821 288.996 413.879C288.165 413.907 287.167 414.19 286.565 414.72C284.415 416.611 282.861 418.932 282.271 421.803C282.228 421.959 282.183 422.114 282.139 422.27L282.265 421.796ZM335.944 188.118C329.349 189.16 321.897 193.196 320.153 196.919L321.707 195.812C322.368 195.346 322.992 194.803 323.691 194.399C329.2 191.224 335.136 189.971 341.443 190.702C345.249 191.143 348.547 192.648 351.02 195.738C352.051 197.006 353.169 198.2 354.365 199.314C359.783 204.43 368.494 206.896 376.753 203.123C376.888 203.062 376.96 202.86 377.255 202.462C374.457 201.706 371.86 200.794 369.184 200.33C364.987 199.604 361.021 198.441 357.533 195.918C356.611 194.985 355.696 194.043 354.767 193.119C351.914 190.268 348.685 188.091 344.54 187.734C341.671 187.474 338.779 187.603 335.944 188.118ZM31.8722 155.132C32.1505 154.893 32.4104 154.633 32.6496 154.355C36.88 148.733 41.3795 143.34 46.2956 138.305C48.3167 136.239 50.4327 134.271 52.4539 132.208C52.9048 131.741 53.3867 131.099 53.4334 130.498C53.7303 126.567 53.8843 122.626 54.1377 118.692C54.3351 115.634 54.629 112.582 54.8435 109.519C54.999 107.343 55.0923 105.166 55.2136 102.982C55.3551 102.242 55.5245 101.506 55.6333 100.762C56.4107 95.2438 57.0917 89.7089 57.9748 84.2082C59.1284 77.0206 60.6754 69.9046 62.9391 62.9797C64.3866 58.5783 66.0859 54.2701 68.7196 50.3677C70.7968 47.2939 73.6948 45.8325 77.2536 45.6133C78.377 45.5726 79.4961 45.773 80.5357 46.201C83.5658 47.4106 85.3554 49.9246 86.8495 52.6687C89.2096 57.0018 90.699 61.666 91.935 66.4142C94.6698 76.9289 96.2541 87.6411 97.3005 98.4419C97.4 99.4602 97.585 100.463 97.7482 101.617C99.1475 101.012 100.328 100.449 101.55 99.9795C107.41 97.7262 113.274 95.4878 119.143 93.2646C119.454 93.2008 119.757 93.1511 120.059 93.0687C124.18 91.9555 128.299 90.8081 132.425 89.7291C134.712 89.1321 137.029 88.6501 139.462 88.0857C139.237 87.3317 139.064 86.7409 138.884 86.1532C135.657 75.5734 131.749 65.2138 127.184 55.1392C122.148 44.0803 115.932 33.7957 107.646 24.845C103.984 20.8898 99.8596 17.5222 94.931 15.2507C92.8912 14.3179 90.8545 13.2995 88.5333 13.214C87.9984 13.0539 87.4729 12.8175 86.9256 12.7227C81.7561 11.838 76.8012 12.5672 72.0685 14.7983C66.6176 17.3605 62.2084 21.2334 58.3479 25.7872C52.1912 33.0494 47.6451 41.2678 44.0008 50.0116C36.1757 68.7929 31.8987 88.4977 28.8918 108.515C28.0926 113.838 27.4692 119.191 26.9095 124.546C26.2472 130.903 25.7014 137.264 25.1868 143.626C24.9505 146.563 24.9194 149.514 24.7779 152.458C24.6722 154.65 24.4872 156.84 24.4297 159.032C24.3675 161.313 24.4157 163.596 24.4157 165.873L24.7266 165.932L31.8722 155.132ZM114.168 398.419C114.323 398.527 114.451 398.689 114.619 398.729C118.661 399.85 122.703 401.009 126.777 402.06C130.975 403.148 135.256 403.63 139.558 404.019C141.8 404.235 144.041 404.485 146.287 404.662C153.473 405.208 160.591 404.572 167.606 403.052C177.053 401.004 186.334 398.411 195.262 394.603C203.895 390.92 212.244 386.77 219.715 381.019C220.281 380.584 220.825 380.122 221.38 379.673C217.485 380.384 213.74 381.456 209.816 381.694C212.148 380.205 214.52 378.847 216.916 377.534C221.325 375.115 225.573 372.47 229.51 369.311C234.3 365.469 237.636 360.817 238.471 354.598C238.566 353.889 238.728 353.19 238.923 352.132C234.236 355.741 229.687 358.889 224.691 361.305C226.661 358.83 228.664 356.428 230.704 354.06C234.503 349.646 237.565 344.794 239.66 339.34C240.18 338.059 240.393 336.675 240.282 335.298C239.867 330.747 239.35 326.215 238.155 321.781C236.926 317.207 235.433 312.776 232.496 308.951C231.692 307.903 230.8 307.276 229.485 306.97C221.681 305.154 214.206 302.41 207.187 298.539C196.036 292.391 186.866 283.845 178.416 274.459C176.49 272.32 174.66 270.093 172.786 267.907C172.691 267.685 172.577 267.471 172.446 267.268C165.636 258.324 160.104 248.619 155.443 238.417C148.167 222.493 144.086 205.742 143.036 188.286C142.62 181.199 142.807 174.09 143.594 167.036C144.638 157.505 146.691 148.232 150.039 139.251C156.21 122.699 165.69 108.518 179.879 97.7236C180.148 97.5199 180.363 97.2463 180.812 96.7907C180.227 96.727 179.943 96.671 179.657 96.6663C169.98 96.5357 160.33 96.7534 150.703 97.977C135.166 99.9267 119.961 103.957 105.499 109.959C82.5226 119.499 62.7821 133.503 46.6423 152.539C37.2703 163.596 29.5401 175.674 23.5901 188.877C15.8397 206.053 11.3885 224.081 10.1167 242.863C9.65472 249.946 9.70668 257.053 10.2722 264.128C10.7575 270.192 11.564 276.227 12.6883 282.206C13.0614 284.227 13.6693 286.2 14.1699 288.194C14.2414 288.749 14.2554 289.318 14.3923 289.857C17.1468 300.683 21.0301 311.189 25.9782 321.204C35.2118 339.886 47.8472 355.875 63.4677 369.556C73.1537 378.042 83.8783 384.993 95.3897 390.721C101.455 393.745 107.688 396.393 114.168 398.419ZM229.522 273.843C238.953 273.793 246.562 270.37 252.652 263.943C260.836 255.304 265.011 244.835 265.499 232.957C265.736 227.286 264.776 221.629 262.682 216.354C258.804 206.504 252.052 199.419 242.22 195.391C236.971 193.241 231.492 193.039 225.929 193.715C217.844 194.699 211.014 198.185 205.655 204.251C197.126 213.911 193.943 225.369 195.624 238.003C197.036 248.616 201.305 257.994 209.382 265.39C215.232 270.748 222.017 273.683 229.522 273.843ZM197.102 182.28C201.922 182.194 206.876 181.056 211.454 178.449C214.107 176.938 216.468 175.084 218.241 172.578C219.57 170.695 220.48 168.648 220.184 166.247C219.735 162.617 217.484 160.339 214.335 158.974C210.938 157.508 207.295 157.188 203.631 157.662C200.147 158.113 197.065 159.691 193.991 161.294C189.898 163.427 187.074 166.596 185.596 170.994C184.178 175.224 185.555 178.852 189.739 180.789C191.942 181.816 194.293 182.162 197.102 182.28ZM392.467 112.704C391.965 112.704 391.462 112.691 390.96 112.704C387.872 112.807 384.81 112.11 382.07 110.682C379.702 109.46 377.549 107.963 375.721 106.031C372.85 103.037 369.735 100.289 366.406 97.8153C365.044 96.7876 363.617 95.8361 361.863 95.676C357.83 95.3091 354.383 96.2481 351.683 99.6266C346.848 105.673 342.749 112.22 338.5 118.657C338.344 118.931 338.208 119.215 338.093 119.509C340.787 117.487 342.612 114.796 344.494 112.144C346.814 108.87 349.181 105.627 351.594 102.416C352.464 101.264 353.445 100.2 354.523 99.2394C356.007 97.9179 356.977 97.9024 358.566 98.9876C359.342 99.5199 360.075 100.113 360.758 100.76C365.111 104.874 370.225 107.982 375.009 111.525C375.217 111.665 375.436 111.79 375.662 111.9C381.131 114.854 386.775 114.715 392.467 112.704ZM323.422 371.638C323.449 371.728 323.477 371.818 323.503 371.91C323.789 371.942 324.078 371.955 324.366 371.949C328.209 371.619 332.025 371.965 335.795 372.621C340.86 373.502 345.882 374.625 350.946 375.506C353.455 375.943 355.983 376.641 358.575 376.052C360.105 375.705 361.633 375.346 363.144 374.926C366.613 373.962 369.71 372.383 372.006 369.446C371.834 369.446 371.695 369.407 371.599 369.446C367.686 371.234 363.628 371.49 359.458 370.612C359.03 370.522 358.592 370.486 358.158 370.432C354.802 370.002 351.412 369.748 348.099 369.101C344.937 368.479 341.799 368.084 338.573 368.145C334.201 368.227 329.958 368.889 325.88 370.489C325.039 370.825 324.24 371.254 323.422 371.638ZM269.006 369.032C270.332 366.949 271.506 365.037 272.748 363.168C276.063 358.193 279.933 353.651 283.997 349.273C287.288 345.728 290.616 342.201 292.806 337.815C295.822 331.781 297.663 325.479 296.953 318.635C296.922 318.335 296.766 318.049 296.668 317.757C296.138 320.997 295.246 324.168 294.01 327.21C293.338 328.831 292.467 330.375 291.864 332.02C290.532 335.657 288.689 338.982 286.199 341.947C283.817 344.783 281.362 347.56 279.058 350.458C275.929 354.394 272.924 358.427 270.776 363.015C269.903 364.892 269.194 366.815 269.009 369.032H269.006ZM317.273 294.366L317.665 294.635C318.259 294.036 318.882 293.461 319.444 292.833C323.985 287.774 327.481 281.867 329.728 275.451C332.404 267.861 334.419 260.127 335.415 252.141C335.571 250.914 335.437 249.653 335.437 248.409C334.965 249.223 334.626 250.107 334.431 251.027C333.015 257.929 330.801 264.585 327.967 271.014C324.904 277.959 321.616 284.806 318.433 291.692C318.029 292.575 317.662 293.475 317.276 294.366H317.273ZM381.201 356.506C382.872 354.724 383.595 352.516 384.23 350.298C385.32 346.48 387.188 342.929 389.718 339.868C389.995 339.53 390.261 339.183 390.533 338.839C387.608 340.453 385.293 342.571 383.881 345.596C382.268 349.065 382.103 352.868 381.204 356.506H381.201Z" fill="#01010A"/>
<path d="M202.939 498.04C200.273 496.765 197.634 495.414 194.651 494.999C195.758 494.818 196.788 494.317 197.616 493.559C199.833 491.614 202.124 489.76 204.371 487.843C206.237 486.254 208.18 484.75 209.872 482.996C213.567 479.164 216.319 474.669 218.603 469.874C220.979 464.888 222.555 459.658 223.598 453.983C223.04 454.498 222.65 454.811 222.316 455.174C219.312 458.452 215.786 460.989 211.877 463.122C205.529 466.589 199.079 469.794 192.208 472.099C191.851 472.219 191.471 472.277 190.882 472.41C191.163 472.042 191.254 471.869 191.392 471.753C196.728 467.256 201.66 462.301 206.132 456.944C208.859 453.679 211.344 450.199 213.836 446.743C215.702 444.156 217.412 441.457 219.189 438.8C219.419 438.714 219.74 438.699 219.865 438.534C221.51 436.387 223.219 434.328 225.41 432.674C228.533 430.316 232.083 429.311 235.895 428.913C238.471 428.643 240.987 429.019 243.538 429.235C246.101 429.457 248.683 429.343 251.217 428.898C256.747 427.899 261.772 425.678 265.918 421.746C269.855 418.014 273.304 413.888 275.911 409.115C277.576 406.068 279.832 403.984 283.442 403.538C285.662 403.26 287.03 401.59 288.288 399.909C288.919 399.065 289.479 398.17 290.225 397.074C290.824 398.499 290.738 399.622 290.177 400.693C288.674 403.568 286.573 405.597 283.125 405.979C280.875 406.226 279.198 407.469 278.15 409.555C276.296 413.26 274.379 416.934 272.473 420.612C270.371 424.672 267.675 428.293 264.233 431.307C261.94 433.316 259.197 434.614 256.394 435.756C252.375 437.39 248.403 439.077 244.912 441.754C241.42 444.438 238.402 447.688 235.985 451.37C235.716 451.774 235.599 452.279 235.413 452.738L234.73 453.581L235.018 453.747L235.477 452.796C235.918 452.356 236.4 451.948 236.792 451.468C240.239 447.237 244.566 444.325 249.891 443.139C251.686 442.741 253.611 442.828 255.474 442.862C258.552 442.909 261.62 442.98 264.647 442.295C269.155 441.273 272.576 438.599 275.402 435.089C277.134 432.938 278.747 430.69 280.424 428.495C280.762 428.055 281.15 427.655 281.562 427.181C284.827 431.447 286.537 436.147 286.36 441.398C286.074 449.706 280.846 454.991 273.507 456.79C271.469 457.289 269.266 457.135 267.133 457.241C261.257 457.536 256.204 459.91 251.691 463.492C248.893 465.711 247.695 468.868 247.092 472.311C246.556 475.364 247.559 478.063 248.919 480.758C249.202 479.514 249.511 478.27 249.763 477.026C251.192 469.954 255.413 465.457 262.246 463.262C266.579 461.863 270.808 462.174 274.568 464.584C280.278 468.237 285.871 467.631 291.556 464.862C292.994 464.162 294.355 463.307 295.997 463.868C298.069 464.579 299.831 465.753 300.894 467.755C301.242 468.413 301.561 469.086 301.892 469.752C299.316 470.88 296.746 472.023 294.162 473.136C289.787 475.022 285.424 476.942 281.017 478.747C278.409 479.814 275.73 480.723 273.069 481.641C269.337 482.922 265.62 484.256 261.837 485.363C256.24 487.001 250.609 488.499 244.971 489.983C241.882 490.798 238.752 491.485 235.643 492.199C230.145 493.457 224.654 494.743 219.138 495.91C216.938 496.377 214.682 496.58 212.452 496.866C209.289 497.283 206.112 497.655 202.939 498.04Z" fill="#45465C"/>
<path d="M440.746 121.166C441.213 127.724 441.862 133.876 441.719 140.076C441.642 143.453 440.51 146.451 438.891 149.321C437.873 151.121 436.747 152.864 435.6 154.588C433.842 157.231 431.425 158.125 428.271 157.514C424.163 156.718 420.999 154.509 418.414 151.379C416.105 148.581 413.198 146.504 410.359 144.33C409.566 143.722 408.745 143.671 407.916 144.175C406.485 145.07 405.065 145.984 403.658 146.917C403.045 147.323 402.479 147.799 401.725 148.369C400.792 143.658 401.605 139.636 404.738 136.196C407.321 133.361 410.343 131.2 414.076 130.11C417.007 129.255 419.731 129.532 422.316 131.245C424.86 132.929 426.876 135.163 428.966 137.332C430.486 138.912 432.03 140.468 433.574 142.024C433.742 142.194 433.978 142.296 434.415 142.582C434.833 141.757 435.348 141.045 435.569 140.25C437.124 134.711 438.638 129.154 440.155 123.601C440.339 122.937 440.482 122.265 440.746 121.166ZM405.621 139.709C407.487 138.231 409.054 136.894 410.724 135.709C412.251 134.621 413.966 134.317 415.886 134.596C417.503 134.831 419.18 134.644 420.861 134.644C419.995 132.217 417.652 130.617 415.325 131.068C413.856 131.341 412.45 131.881 411.176 132.66C409.043 134.017 407.5 136.032 406.164 138.17C405.923 138.568 405.844 139.067 405.621 139.709Z" fill="#03030C"/>
<path d="M14.1729 288.195C13.6723 286.2 13.0644 284.226 12.6913 282.206C11.567 276.227 10.7605 270.192 10.2752 264.128C9.7097 257.053 9.65774 249.946 10.1197 242.863C11.3915 224.081 15.8427 206.053 23.5931 188.877C29.5493 175.674 37.2749 163.596 46.6453 152.539C62.7804 133.503 82.521 119.499 105.497 109.955C119.96 103.952 135.164 99.9221 150.701 97.9723C160.328 96.7487 169.98 96.5311 179.655 96.6617C179.941 96.6617 180.226 96.7223 180.81 96.7861C180.353 97.2525 180.139 97.5199 179.877 97.7189C165.683 108.515 156.202 122.699 150.033 139.251C146.685 148.232 144.631 157.505 143.588 167.036C142.802 174.091 142.618 181.199 143.036 188.286C144.093 205.742 148.178 222.49 155.454 238.42C160.118 248.622 165.647 258.321 172.457 267.271C172.588 267.475 172.702 267.688 172.799 267.91C168.784 270.367 165.477 273.585 162.537 277.239C159.286 281.29 156.785 285.777 154.617 290.468C153.964 289.478 153.374 288.438 152.648 287.514C150.075 284.235 146.758 281.891 143.008 280.162C135.401 276.656 127.419 275.619 119.14 276.673C111.226 277.679 104.035 280.271 98.3653 286.185C98.2208 285.519 98.1539 284.827 97.9191 284.196C95.9384 278.868 92.4014 274.74 87.9175 271.357C88.1445 271.269 88.3668 271.164 88.6 271.096C94.0416 269.504 98.8458 266.718 102.58 262.531C114.096 249.627 118.226 234.659 113.662 217.817C110.833 207.373 104.368 199.573 94.564 194.71C88.7912 191.845 82.7013 191.363 76.3984 192.123C68.222 193.112 61.4324 196.719 56.0997 202.925C48.4814 211.787 45.4326 222.164 46.1633 233.784C46.6406 241.352 49.0925 248.243 52.701 254.81C54.5667 258.201 57.1616 261.01 59.8528 263.74C59.4843 263.806 59.1143 263.924 58.7458 263.926C55.2088 263.944 51.7635 264.608 48.354 265.449C36.9235 268.268 26.984 273.702 18.9911 282.455C17.3057 284.294 15.7743 286.276 14.1729 288.195ZM101.439 181.277C102.257 181.187 103.822 181.09 105.36 180.821C107.67 180.416 109.827 179.578 111.722 178.146C114.174 176.291 115.181 173.37 114.221 170.458C113.44 167.998 112.118 165.745 110.351 163.864C108.389 161.799 105.895 160.639 103.342 159.562C98.6934 157.598 93.9608 156.482 88.883 157.827C86.6193 158.425 84.3664 158.994 82.5085 160.489C78.7554 163.522 77.3779 167.94 80.4158 172.278C81.7967 174.236 83.5712 175.883 85.6258 177.115C90.2558 179.929 95.3056 181.187 101.439 181.277Z" fill="#ECAD74"/>
<path d="M219.189 438.804C217.41 441.457 215.703 444.161 213.836 446.748C211.349 450.204 208.861 453.68 206.132 456.948C201.66 462.305 196.728 467.26 191.392 471.757C191.253 471.874 191.163 472.046 190.882 472.415C191.471 472.277 191.85 472.219 192.208 472.104C199.078 469.798 205.529 466.594 211.877 463.127C215.783 460.994 219.312 458.463 222.316 455.179C222.65 454.815 223.04 454.503 223.598 453.988C222.555 459.663 220.979 464.893 218.603 469.879C216.319 474.674 213.567 479.169 209.872 483.001C208.18 484.755 206.229 486.266 204.371 487.847C202.127 489.764 199.833 491.619 197.615 493.564C196.788 494.322 195.758 494.822 194.651 495.004C184.963 496.147 175.23 496.45 165.493 496.185C159.229 496.016 152.971 495.515 146.715 495.097C138.577 494.559 130.514 493.387 122.476 492.048C112.507 490.386 102.647 488.225 92.9362 485.394C92.0967 485.148 91.2866 484.797 90.4626 484.494L89.3479 484.08L89.3183 484.071C89.0369 483.775 88.8084 483.387 88.4679 483.199C80.0101 478.553 72.3452 472.791 65.282 466.274C58.5453 460.055 52.4927 453.183 47.0418 445.796C46.807 445.485 46.4292 445.266 46.1183 445.003L46.0576 444.91L46.6049 444.406C51.1245 446.695 55.5431 449.215 60.1871 451.216C67.9189 454.548 75.9802 456.802 84.4411 457.379L85.1252 457.419L86.6628 457.407C86.8338 458.279 87.5459 457.964 88.0341 457.968C93.9421 458.018 99.8595 458.072 105.772 458.044C107.837 458.035 109.925 457.956 111.96 457.64C119.11 456.547 126.064 454.426 132.607 451.343C132.979 451.138 133.339 450.909 133.683 450.659C130.35 450.341 127.153 450.177 124.02 449.705C119.288 448.993 114.676 447.722 110.338 445.684C99.8066 440.746 91.0208 433.52 83.5098 424.723C77.692 417.909 72.7448 410.504 69.0134 402.316C67.1119 398.14 64.9944 394.061 63.1878 389.846C62.2083 387.562 61.6781 385.085 60.9458 382.694C67.2348 387.288 73.3838 392.086 79.8515 396.414C85.9974 400.527 92.4014 404.272 98.8194 407.957C109.437 414.027 120.54 419.208 132.013 423.445C141.005 426.812 150.38 429.048 159.924 430.103C165.832 430.746 171.777 431.133 177.705 431.639C185.168 432.276 192.65 432.183 200.114 431.822C207.751 431.454 215.318 430.345 222.813 428.786C223.224 428.7 223.647 428.666 224.25 428.584C222.914 432.312 220.94 435.504 219.189 438.804Z" fill="#FEFEEF"/>
<path d="M154.618 290.471C156.794 285.781 159.282 281.298 162.537 277.242C165.47 273.585 168.777 270.367 172.799 267.913C174.664 270.099 176.501 272.326 178.427 274.465C186.877 283.851 196.047 292.398 207.197 298.545C214.217 302.416 221.692 305.16 229.496 306.976C230.811 307.287 231.703 307.909 232.507 308.957C235.444 312.782 236.937 317.213 238.166 321.787C239.357 326.221 239.877 330.753 240.293 335.304C240.403 336.681 240.191 338.065 239.671 339.346C237.576 344.8 234.514 349.652 230.714 354.066C228.675 356.434 226.672 358.836 224.702 361.311C229.698 358.888 234.247 355.739 238.934 352.138C238.738 353.196 238.577 353.895 238.482 354.604C237.647 360.823 234.311 365.475 229.52 369.317C225.584 372.476 221.336 375.121 216.927 377.54C214.531 378.854 212.159 380.211 209.826 381.7C213.751 381.467 217.496 380.394 221.391 379.679C220.836 380.129 220.291 380.59 219.726 381.026C212.263 386.778 203.906 390.926 195.273 394.609C186.345 398.417 177.063 401.01 167.617 403.058C160.599 404.578 153.484 405.214 146.298 404.669C144.052 404.498 141.811 404.241 139.568 404.025L139.033 403.436C141.848 402.635 144.52 401.634 146.891 399.978C151.443 396.798 155.229 392.818 158.756 388.572C159.19 388.32 159.616 388.058 160.058 387.821C165.123 385.115 169.815 381.892 174.007 377.941C179.846 372.437 184.375 365.994 187.779 358.763C192.897 347.889 194.719 336.477 193.244 324.525C192.989 322.465 192.978 320.513 193.866 318.513C194.851 316.285 195.378 313.859 196.249 311.575C196.928 309.792 196.264 308.363 195.316 307.003C194.33 305.577 192.704 305.35 191.247 306.208C189.299 307.357 188.161 309.095 187.494 311.183C186.655 313.827 185.733 316.415 184.131 318.71L183.789 319.176L183.478 319.767L183.265 320.078L183.243 320.142C182.892 320.361 182.475 320.518 182.199 320.807C179.822 323.286 177.037 325.161 173.959 326.652C169.227 328.942 164.217 330.249 159.063 331.086C154.554 331.818 150.084 331.848 145.768 329.997C144.177 329.318 142.554 328.713 140.737 327.992C141.203 327.284 141.475 326.815 141.797 326.378C146.539 319.932 150.575 313.083 153.577 305.65C153.965 304.689 154.164 303.652 154.45 302.651C154.58 302.185 154.633 301.667 154.857 301.252C155.605 299.843 155.773 298.343 155.868 296.777C155.992 294.551 155.308 292.52 154.618 290.471Z" fill="#FEFEEF"/>
<path d="M87.9145 271.354C92.3984 274.737 95.9354 278.865 97.9161 284.193C98.1509 284.824 98.2178 285.516 98.3623 286.182C98.0234 286.626 97.6612 287.057 97.3471 287.52C95.0368 290.925 93.8007 294.63 94.2796 298.791C94.5392 301.051 95.5016 303.079 96.4422 305.109C95.7286 305.848 96.4158 306.552 96.6195 307.155C99.2875 315.083 103.139 322.562 108.044 329.338C108.381 329.805 108.666 330.315 109.015 330.893C103.692 331.911 98.8024 331.76 93.9889 329.691C87.8678 327.06 82.193 323.825 77.6019 318.906C76.5975 317.83 75.6196 316.729 74.6308 315.641L74.3198 314.688C74.2732 314.518 74.225 314.35 74.1783 314.181C73.1988 310.905 72.7169 307.562 73.0698 304.154C73.2128 302.783 72.7962 301.689 72.0079 300.67C71.1077 299.509 69.0772 298.77 68.0044 299.238C66.1388 300.058 64.584 301.242 64.3974 303.449C64.2684 305.062 64.2575 306.682 64.3648 308.296C64.5063 310.61 64.6058 312.951 65.0535 315.215C66.0455 320.232 68.0076 324.93 70.2106 329.519C72.9003 335.116 76.6022 339.884 81.5882 343.603C83.5923 345.097 85.6959 346.459 87.7357 347.868C87.8585 350.735 87.9083 353.62 88.1228 356.49C88.5892 362.826 90.3865 368.801 93.3359 374.416C96.9538 381.307 101.828 387.134 108.165 391.699L108.51 391.985L108.977 392.325C109.277 392.832 109.485 393.435 109.895 393.83C111.243 395.13 112.664 396.355 114.056 397.61C114.316 397.845 114.749 398.059 114.177 398.42C107.697 396.399 101.464 393.746 95.399 390.729C83.8939 385.001 73.1662 378.05 63.477 369.564C47.8565 355.882 35.2211 339.893 25.9875 321.212C21.0401 311.195 17.1579 300.686 14.4047 289.859C14.2679 289.319 14.2492 288.75 14.1824 288.195C15.7838 286.278 17.3152 284.296 19.0021 282.453C26.995 273.7 36.9345 268.266 48.3649 265.448C51.7745 264.606 55.2198 263.943 58.7568 263.924C59.1253 263.924 59.4953 263.804 59.8654 263.74C60.1079 263.936 60.3567 264.123 60.5899 264.328C65.9631 269.078 72.1805 271.82 79.3789 272.218C82.2614 272.385 85.0849 271.839 87.9145 271.354Z" fill="#FEFEEF"/>
<path d="M119.145 93.2645C113.278 95.5002 107.414 97.7386 101.551 99.9795C100.329 100.446 99.1444 101.012 97.7498 101.617C97.5866 100.469 97.4016 99.4602 97.3021 98.4418C96.2557 87.641 94.6714 76.9289 91.9366 66.4141C90.6928 61.6659 89.2112 57.0017 86.8511 52.6687C85.3554 49.9245 83.5675 47.4136 80.5357 46.2009C79.4972 45.7734 78.3792 45.573 77.2568 45.6132C73.6948 45.8325 70.8015 47.2939 68.7197 50.3676C66.0766 54.27 64.3819 58.5782 62.9376 62.9999C60.6739 69.9294 59.1269 77.0408 57.9733 84.2284C57.0902 89.729 56.4185 95.267 55.6318 100.782C55.5261 101.526 55.3535 102.262 55.2121 103.002C54.9789 103.258 54.6539 103.468 54.5249 103.779C51.7901 110.161 49.1299 116.581 46.3314 122.949C43.6463 129.089 40.8665 135.187 38.0804 141.283C36.1789 145.442 34.1935 149.562 32.261 153.71C32.0557 154.15 31.9935 154.657 31.8661 155.132L24.7251 165.938L24.4142 165.879C24.4142 163.596 24.366 161.312 24.4282 159.038C24.4857 156.846 24.6707 154.657 24.7764 152.464C24.9179 149.52 24.949 146.569 25.1853 143.632C25.6999 137.27 26.2457 130.908 26.908 124.558C27.4677 119.204 28.0911 113.851 28.8903 108.527C31.8987 88.4977 36.1758 68.7929 43.9993 50.0116C47.6436 41.2677 52.1896 33.0494 58.3464 25.7872C62.2069 21.2333 66.6161 17.3605 72.067 14.7982C76.7997 12.5734 81.7546 11.8442 86.9242 12.7227C87.4714 12.8175 87.9969 13.0476 88.5333 13.214C88.751 13.5793 88.8862 14.0535 89.2003 14.293C92.4342 16.7557 94.9311 19.9351 97.3705 23.0943C104.379 32.1772 109.375 42.3483 112.999 53.1957C115.082 59.4349 116.845 65.7751 117.871 72.2864C118.543 76.5479 119.286 80.8064 119.173 85.1566C119.101 87.8587 119.149 90.5624 119.145 93.2645Z" fill="#ECAC74"/>
<path d="M229.522 273.843C222.022 273.688 215.232 270.748 209.382 265.39C201.297 257.994 197.036 248.616 195.624 238.003C193.943 225.37 197.126 213.905 205.655 204.252C211.014 198.188 217.847 194.699 225.929 193.715C231.495 193.039 236.968 193.249 242.22 195.391C252.052 199.419 258.804 206.504 262.682 216.354C264.776 221.629 265.736 227.286 265.499 232.957C265.011 244.835 260.835 255.305 252.652 263.943C246.562 270.364 238.953 273.794 229.522 273.843ZM231.024 200.721C229.339 200.876 227.644 200.976 225.969 201.215C219.247 202.174 213.727 205.377 209.467 210.589C202.782 218.765 200.56 228.233 202.267 238.546C203.614 246.684 206.997 253.899 213.205 259.571C218.345 264.266 224.334 266.859 231.371 266.524C238.295 266.192 244.197 263.354 248.826 258.284C256.444 249.933 259.944 240.054 258.944 228.703C258.167 219.97 254.623 212.622 247.824 206.999C242.975 202.981 237.457 200.631 231.024 200.721Z" fill="#56EEB9"/>
<path d="M60.946 382.695C61.6782 385.085 62.2084 387.562 63.1879 389.847C64.9945 394.062 67.1121 398.142 69.0135 402.318C72.7449 410.505 77.6921 417.91 83.5099 424.725C91.0209 433.521 99.8067 440.748 110.339 445.686C114.683 447.724 119.294 448.994 124.02 449.706C127.161 450.173 130.35 450.342 133.683 450.661C133.339 450.911 132.979 451.139 132.607 451.345C126.064 454.428 119.11 456.549 111.96 457.642C109.925 457.953 107.837 458.037 105.772 458.046C99.8643 458.074 93.9469 458.02 88.0342 457.97C87.546 457.97 86.834 458.281 86.6629 457.409C86.6163 455.84 85.4938 454.835 84.6791 453.677C81.8635 449.683 78.7431 445.871 76.2555 441.682C69.6276 430.518 64.3011 418.773 61.9845 405.877C61.344 402.312 60.8962 398.7 60.5759 395.091C60.2852 391.788 60.2728 388.457 60.1795 385.141C60.1561 384.334 60.2883 383.521 60.3816 382.714C60.5689 382.693 60.7576 382.687 60.946 382.695Z" fill="#B59C93"/>
<path d="M119.145 93.2645C119.145 90.5624 119.101 87.8587 119.173 85.1565C119.286 80.8033 118.551 76.5479 117.871 72.2864C116.845 65.7751 115.082 59.4349 112.999 53.1957C109.375 42.3483 104.379 32.1772 97.3719 23.0944C94.9326 19.9351 92.4356 16.7557 89.2018 14.2976C88.8908 14.0582 88.7525 13.584 88.5348 13.2186C90.856 13.3041 92.8881 14.3163 94.9325 15.2553C99.8611 17.5268 103.986 20.8944 107.647 24.8497C115.934 33.8003 122.15 44.0849 127.186 55.1438C131.751 65.2169 135.659 75.575 138.885 86.1531C139.065 86.7408 139.238 87.3316 139.463 88.0857C137.03 88.65 134.714 89.132 132.427 89.729C128.296 90.808 124.187 91.9554 120.06 93.0686C119.759 93.151 119.449 93.2008 119.145 93.2645Z" fill="#A96B48"/>
<path d="M330.286 326.241C333.456 325.263 336.589 324.148 339.8 323.332C349.27 320.922 357.703 316.518 365.34 310.478C370.459 306.435 375.641 302.457 380.786 298.438C381.762 297.674 382.692 296.847 383.978 295.77C383.658 296.751 383.463 297.325 383.284 297.903C380.938 305.513 376.063 311.597 371.372 317.813C368.679 321.381 364.982 323.606 361.3 325.877C355.406 329.517 348.934 331.63 342.197 333.057C335.322 334.509 328.473 336.1 321.581 337.463C316.02 338.552 310.752 340.804 306.123 344.071C301.384 347.389 296.817 350.924 292.587 354.872C288.156 359.007 284.446 363.756 281.132 368.819C280.479 369.814 279.804 370.795 278.854 371.657C279.557 369.911 280.203 368.14 280.973 366.425C282.822 362.31 284.47 358.075 287.525 354.628C287.7 354.464 287.89 354.318 288.092 354.191C290.205 353.039 291.464 351.081 292.794 349.194L292.746 349.242C294.121 348.092 295.544 346.989 296.866 345.78C301.754 341.305 307.189 337.65 313.049 334.562C318.548 331.664 324.047 328.797 329.978 326.865C330.208 326.778 330.431 326.677 330.649 326.563L330.286 326.241Z" fill="#56EDB8"/>
<path d="M197.102 182.28C194.293 182.162 191.942 181.813 189.744 180.795C185.56 178.851 184.182 175.224 185.6 171C187.074 166.602 189.898 163.433 193.996 161.3C197.07 159.697 200.151 158.119 203.635 157.668C207.3 157.194 210.943 157.513 214.34 158.98C217.488 160.339 219.739 162.623 220.189 166.253C220.484 168.654 219.567 170.702 218.245 172.584C216.473 175.091 214.111 176.938 211.459 178.455C206.875 181.056 201.922 182.194 197.102 182.28Z" fill="#FCFDEE"/>
<path d="M31.8723 155.132C31.9998 154.656 32.062 154.15 32.2672 153.71C34.1951 149.562 36.1852 145.442 38.0866 141.283C40.8727 135.186 43.6526 129.089 46.3376 122.949C49.1237 116.575 51.7901 110.161 54.5296 103.774C54.6586 103.474 54.9836 103.258 55.2168 102.997C55.0955 105.174 55.0007 107.358 54.8467 109.535C54.6322 112.593 54.3383 115.645 54.1409 118.708C53.8875 122.641 53.7335 126.583 53.4366 130.513C53.3915 131.107 52.908 131.757 52.4571 132.223C50.4359 134.286 48.3168 136.255 46.2988 138.321C41.3827 143.341 36.8832 148.741 32.6497 154.363C32.4102 154.638 32.1503 154.895 31.8723 155.132Z" fill="#A96B48"/>
<path d="M114.168 398.419C114.74 398.058 114.306 397.843 114.046 397.609C112.655 396.354 111.234 395.129 109.886 393.829C109.476 393.434 109.264 392.831 108.966 392.322C109.743 392.699 110.545 393.033 111.298 393.457C115.728 395.971 120.652 397.493 125.729 397.918C132.322 398.499 138.54 396.814 144.706 394.826C145.894 394.443 147.117 394.026 148.161 393.366C151.472 391.265 155.238 390.206 158.748 388.572C155.221 392.818 151.441 396.799 146.883 399.978C144.512 401.634 141.841 402.635 139.025 403.436L139.56 404.025C135.259 403.636 130.97 403.147 126.78 402.066C122.713 401.015 118.67 399.857 114.622 398.736C114.451 398.689 114.317 398.527 114.168 398.419Z" fill="#B19B92"/>
<path d="M392.467 112.703C386.775 114.715 381.131 114.854 375.665 111.909C375.439 111.799 375.221 111.674 375.012 111.534C370.228 107.991 365.116 104.883 360.761 100.769C360.078 100.122 359.345 99.5292 358.569 98.9969C356.977 97.9086 356.007 97.9272 354.526 99.2487C353.448 100.209 352.467 101.273 351.597 102.425C349.181 105.631 346.814 108.874 344.497 112.153C342.616 114.805 340.79 117.494 338.096 119.518C338.211 119.225 338.347 118.94 338.503 118.666C342.752 112.223 346.851 105.682 351.686 99.6359C354.387 96.2574 357.833 95.3184 361.866 95.6853C363.62 95.8407 365.047 96.7969 366.409 97.8246C369.738 100.298 372.854 103.046 375.724 106.04C377.552 107.972 379.705 109.47 382.073 110.692C384.813 112.12 387.875 112.816 390.963 112.713C391.462 112.691 391.965 112.703 392.467 112.703Z" fill="#52E6B3"/>
<path d="M323.422 371.638C324.24 371.254 325.039 370.825 325.879 370.495C329.957 368.896 334.2 368.233 338.572 368.151C341.798 368.09 344.935 368.49 348.098 369.107C351.411 369.754 354.8 370.009 358.157 370.438C358.591 370.492 359.029 370.528 359.457 370.618C363.626 371.497 367.684 371.24 371.598 369.452C371.695 369.407 371.832 369.452 372.005 369.452C369.71 372.389 366.613 373.969 363.143 374.933C361.632 375.352 360.103 375.71 358.573 376.058C355.982 376.648 353.454 375.949 350.944 375.513C345.88 374.631 340.859 373.508 335.793 372.627C332.023 371.971 328.208 371.626 324.364 371.955C324.076 371.962 323.788 371.949 323.502 371.916C323.477 371.818 323.449 371.733 323.422 371.638Z" fill="#53EBB6"/>
<path d="M46.1229 445.003C46.4339 445.266 46.8117 445.477 47.0464 445.796C52.4974 453.183 58.5515 460.056 65.2867 466.274C72.3499 472.791 80.0148 478.556 88.4725 483.199C88.813 483.387 89.0416 483.775 89.323 484.071C88.9576 484.046 88.5658 484.099 88.2347 483.988C80.534 481.467 72.9407 478.676 65.8837 474.626C64.8218 474.016 63.7521 473.244 63.0028 472.294C56.5055 464.102 51.0188 455.263 46.3934 445.888C46.2787 445.601 46.1882 445.305 46.1229 445.003Z" fill="#B49B92"/>
<path d="M357.525 195.926C361.013 198.449 364.988 199.612 369.177 200.338C371.852 200.805 374.449 201.714 377.247 202.47C376.952 202.868 376.88 203.07 376.745 203.13C368.491 206.904 359.78 204.438 354.357 199.321C353.161 198.208 352.043 197.013 351.013 195.745C348.539 192.656 345.241 191.151 341.435 190.71C335.128 189.979 329.192 191.232 323.683 194.407C322.984 194.811 322.36 195.34 321.7 195.82L320.145 196.927C321.889 193.196 329.341 189.167 335.936 188.126C336.6 188.219 337.267 188.398 337.929 188.388C340.318 188.356 342.675 188.488 345.033 188.948C348.953 189.711 351.969 192.02 354.983 194.401C355.758 195.007 356.677 195.425 357.525 195.926Z" fill="#55E9B5"/>
<path d="M323.021 86.8761C321.886 83.1121 320.507 79.4009 319.664 75.5716C317.643 66.4142 314.88 57.5273 311.051 48.9591C306.814 39.4751 301.903 30.3799 296.04 21.8008C295.123 20.456 294.33 19.0287 293.479 17.6341C293.392 17.4911 293.364 17.3138 293.49 17.0013C294.451 18.0135 295.468 18.979 296.362 20.0471C302.27 27.1149 306.95 34.9928 311.287 43.0775C314.363 48.7644 317.093 54.6312 319.464 60.6461C319.552 60.9394 319.617 61.2394 319.657 61.5431C319.619 61.5836 319.542 61.6442 319.551 61.6613C319.596 61.742 319.648 61.8185 319.706 61.8899L319.66 61.8525C319.723 62.406 319.737 62.972 319.86 63.513C320.341 65.6508 320.933 67.7652 321.343 69.9139C322.429 75.5172 323.337 81.1391 323.021 86.8761Z" fill="#55E9B5"/>
<path d="M282.276 421.805C282.865 418.933 284.42 416.612 286.57 414.721C287.172 414.191 288.17 413.908 289 413.88C290.625 413.823 292.251 413.915 293.859 414.156C296.502 414.558 298.503 413.809 299.983 411.512C301.315 409.442 301.763 407.108 302.234 404.784C302.728 402.336 303.046 399.855 303.478 397.394C303.579 396.913 303.811 396.469 304.148 396.111C304.148 396.543 304.227 396.993 304.136 397.405C303.546 400.048 304.136 402.622 304.534 405.203C305.048 408.572 304.255 411.637 302.486 414.487C302.057 415.177 301.455 415.766 301.068 416.475C299.24 419.84 296.195 421.261 292.612 421.632C290.992 421.789 289.358 421.693 287.769 421.346C285.838 420.926 284.061 421.13 282.27 421.797L282.276 421.805Z" fill="#43445A"/>
<path d="M269.009 369.032C269.194 366.815 269.9 364.889 270.779 363.015C272.927 358.427 275.933 354.394 279.061 350.458C281.365 347.56 283.82 344.783 286.202 341.947C288.689 338.982 290.535 335.657 291.867 332.02C292.47 330.375 293.341 328.831 294.013 327.21C295.249 324.168 296.141 320.997 296.671 317.757C296.769 318.049 296.925 318.335 296.956 318.635C297.666 325.476 295.825 331.781 292.809 337.815C290.619 342.201 287.292 345.728 284 349.273C279.936 353.651 276.071 358.186 272.752 363.168C271.509 365.037 270.335 366.949 269.009 369.032Z" fill="#52E6B3"/>
<path d="M317.276 294.366C317.662 293.475 318.029 292.575 318.436 291.693C321.619 284.801 324.907 277.954 327.97 271.015C330.804 264.586 333.018 257.93 334.434 251.029C334.629 250.108 334.969 249.225 335.44 248.411C335.44 249.654 335.572 250.92 335.419 252.142C334.422 260.129 332.407 267.862 329.731 275.452C327.484 281.868 323.988 287.776 319.447 292.834C318.885 293.456 318.262 294.038 317.668 294.636L317.276 294.366Z" fill="#52E6B3"/>
<path d="M330.286 326.241L330.649 326.563C330.431 326.677 330.208 326.777 329.978 326.865C324.047 328.797 318.548 331.664 313.049 334.562C307.189 337.65 301.754 341.305 296.866 345.78C295.542 346.989 294.121 348.091 292.745 349.242C292.77 349.038 292.717 348.754 292.831 348.64C299.002 342.588 305.037 336.358 312.718 332.134C316.252 330.187 320.11 329.1 323.966 328.014C326.073 327.421 328.18 326.83 330.286 326.241Z" fill="#D0F9EC"/>
<path d="M319.548 447.197C318.483 446.242 317.506 445.154 316.332 444.361C315.323 443.665 314.171 443.204 312.961 443.01C311.751 442.816 310.512 442.895 309.336 443.24C308.259 443.542 307.351 444.448 306.272 445.14C305.46 444.673 305.137 444.027 305.44 443.007C305.891 441.499 306.244 439.983 307.632 438.964C310.244 437.051 316.435 437.66 317.785 441.97C318.326 443.697 319.072 445.361 319.725 447.052C319.663 447.102 319.605 447.149 319.548 447.197Z" fill="#43445A"/>
<path d="M381.204 356.506C382.103 352.868 382.268 349.065 383.885 345.596C385.296 342.567 387.616 340.453 390.536 338.839C390.264 339.183 389.998 339.529 389.721 339.868C387.191 342.929 385.323 346.48 384.233 350.298C383.599 352.516 382.876 354.724 381.204 356.506Z" fill="#52E6B3"/>
<path d="M323.021 86.8761C323.332 81.1391 322.429 75.5171 321.357 69.9169C320.947 67.7683 320.355 65.6538 319.874 63.5161C319.751 62.975 319.737 62.4091 319.674 61.8556C320.179 63.0994 320.801 64.323 321.168 65.6118C322.14 69.0323 323.172 72.4527 323.842 75.9276C324.209 77.843 323.948 79.8906 323.867 81.8745C323.798 83.8092 323.559 85.7341 323.153 87.627L323.021 86.8761Z" fill="#D0F9EC"/>
<path d="M357.526 195.926C356.677 195.422 355.758 195.007 354.99 194.399C351.977 192.019 348.96 189.71 345.039 188.946C342.681 188.48 340.324 188.354 337.936 188.387C337.273 188.396 336.607 188.217 335.943 188.124C338.775 187.609 341.664 187.478 344.531 187.737C348.676 188.094 351.905 190.271 354.758 193.122C355.688 194.051 356.604 194.991 357.526 195.926Z" fill="#D0F9EC"/>
<path d="M292.794 349.189C291.465 351.08 290.205 353.034 288.092 354.186C289.556 352.486 291.022 350.789 292.491 349.094C292.519 349.066 292.69 349.16 292.794 349.189Z" fill="#D0F9EC"/>
<path d="M46.6096 444.406L46.0623 444.91C45.8695 444.611 45.6783 444.313 45.4855 444.016L45.6518 443.795L46.6096 444.406Z" fill="#B49B92"/>
<path d="M282.265 421.796L282.144 422.271C282.187 422.116 282.232 421.96 282.276 421.805L282.265 421.796Z" fill="#43445A"/>
<path d="M319.719 447.052L319.901 447.607C319.784 447.469 319.667 447.332 319.549 447.195C319.605 447.149 319.663 447.102 319.719 447.052Z" fill="#43445A"/>
<path d="M319.72 61.893C319.662 61.8217 319.61 61.7452 319.565 61.6644C319.556 61.6473 319.633 61.5867 319.671 61.5463C319.704 61.6188 319.733 61.6936 319.756 61.7701C319.758 61.8059 319.731 61.851 319.72 61.893Z" fill="#D0F9EC"/>
<path d="M235.48 452.802L235.021 453.753L234.734 453.587L235.416 452.744L235.48 452.802Z" fill="#01010A"/>
<path d="M405.621 139.709C405.844 139.067 405.923 138.568 406.17 138.173C407.506 136.035 409.05 134.02 411.183 132.663C412.457 131.884 413.862 131.344 415.331 131.071C417.663 130.617 419.995 132.217 420.867 134.647C419.18 134.647 417.503 134.834 415.892 134.599C413.972 134.321 412.257 134.628 410.73 135.712C409.053 136.894 407.498 138.231 405.621 139.709Z" fill="#52E6B3"/>
<path d="M87.9144 271.354C85.0848 271.839 82.2614 272.377 79.3633 272.217C72.1649 271.819 65.9475 269.076 60.5743 264.327C60.3411 264.121 60.0923 263.935 59.8498 263.739C57.1554 261.007 54.5637 258.198 52.698 254.807C49.0894 248.244 46.6345 241.349 46.1603 233.781C45.4295 222.16 48.4799 211.787 56.0966 202.922C61.4294 196.715 68.2236 193.108 76.3953 192.12C82.6983 191.359 88.7882 191.841 94.561 194.707C104.365 199.57 110.83 207.37 113.659 217.813C118.223 234.656 114.093 249.617 102.577 262.528C98.8458 266.715 94.0261 269.501 88.597 271.093C88.3637 271.161 88.1414 271.265 87.9144 271.354ZM104.095 218.822C104.095 214.234 101.94 210.22 98.1493 207.67C94.7848 205.407 90.9975 204.953 87.1479 205.469C79.85 206.451 75.5682 212.182 75.8185 218.913C75.974 223.14 77.7946 226.775 80.9025 229.709C83.331 232.003 86.2213 233.253 89.5516 233.353C97.6036 233.596 104.102 227.075 104.095 218.822ZM70.1064 257.225L70.2619 257.186C70.01 256.163 69.8716 255.095 69.4845 254.123C68.2407 250.967 66.1962 248.37 63.5019 246.323C62.7177 245.7 61.8425 245.2 60.907 244.843C59.3834 244.305 57.7322 244.235 56.4496 245.34C55.1918 246.428 55.5385 247.924 55.9256 249.364C56.8585 252.863 59.1797 255.367 61.8336 257.613C62.9717 258.579 64.1502 259.541 65.4406 260.275C68.4833 262.002 69.7193 260.415 70.1049 257.601C70.1142 257.473 70.1147 257.346 70.1064 257.218V257.225Z" fill="#01010A"/>
<path d="M96.4422 305.109C95.5094 303.079 94.5392 301.051 94.2796 298.791C93.8007 294.63 95.0367 290.925 97.3471 287.52C97.658 287.054 98.0234 286.626 98.3623 286.182C104.032 280.274 111.223 277.676 119.137 276.67C127.416 275.616 135.398 276.653 143.005 280.159C146.758 281.887 150.075 284.232 152.645 287.511C153.374 288.444 153.961 289.481 154.614 290.465C155.305 292.514 155.989 294.545 155.858 296.78C155.763 298.346 155.596 299.846 154.848 301.255C154.624 301.676 154.571 302.188 154.44 302.654C154.289 302.761 154.153 302.888 154.035 303.03C151.735 306.779 148.497 309.504 144.65 311.529C135.011 316.596 124.829 317.626 114.27 315.468C108.969 314.38 104.07 312.308 99.9575 308.682C98.7044 307.59 97.6083 306.309 96.4422 305.109ZM102.644 291.116C105.485 289.268 108.44 287.796 111.727 287.06C116.702 285.947 121.761 285.652 126.837 285.61C131.691 285.569 136.433 286.441 141.141 287.531C141.578 287.632 142.03 287.656 142.477 287.715L142.696 287.352C141.96 286.535 141.307 285.616 140.471 284.918C137.278 282.248 133.383 281.507 129.403 281.342C123.509 281.11 117.795 282.341 112.273 284.269C108.456 285.6 105.295 288.064 102.644 291.109V291.116Z" fill="#02010A"/>
<path d="M101.439 181.277C95.3057 181.193 90.2559 179.935 85.6352 177.115C83.5807 175.883 81.8061 174.236 80.4253 172.278C77.392 167.94 78.7648 163.522 82.5179 160.489C84.3681 158.994 86.6209 158.425 88.8924 157.827C93.9686 156.482 98.7013 157.598 103.351 159.562C105.904 160.639 108.398 161.799 110.36 163.864C112.127 165.745 113.45 167.998 114.23 170.458C115.191 173.37 114.183 176.291 111.732 178.146C109.836 179.578 107.68 180.416 105.37 180.821C103.823 181.084 102.257 181.181 101.439 181.277Z" fill="#FFFEEF"/>
<path d="M158.739 388.572C155.229 390.206 151.463 391.265 148.151 393.366C147.108 394.026 145.885 394.443 144.697 394.826C138.531 396.814 132.313 398.499 125.72 397.918C120.643 397.493 115.719 395.971 111.288 393.457C110.539 393.033 109.734 392.699 108.956 392.322L108.499 391.983L108.154 391.697C101.817 387.133 96.9429 381.305 93.325 374.415C90.371 368.799 88.583 362.824 88.112 356.489C87.8974 353.617 87.8476 350.736 87.7248 347.866C85.685 346.457 83.5814 345.096 81.5774 343.601C76.5913 339.882 72.8895 335.109 70.1998 329.517C67.9905 324.921 66.0346 320.223 65.0427 315.213C64.5949 312.95 64.4954 310.608 64.3539 308.295C64.2466 306.68 64.2575 305.06 64.3866 303.447C64.5763 301.241 66.1248 300.056 67.9936 299.237C69.0664 298.77 71.1031 299.507 71.997 300.669C72.7853 301.687 73.202 302.782 73.0589 304.153C72.706 307.561 73.188 310.904 74.1675 314.179C74.2141 314.349 74.2623 314.517 74.309 314.686L74.6199 315.639C74.6945 316.25 74.6572 316.902 74.864 317.466C75.7455 319.882 76.4918 322.381 77.6625 324.655C81.9474 332.976 88.1182 339.062 97.7265 340.825C101.29 341.476 104.822 341.72 108.257 340.173C113.739 337.706 118.165 334.02 121.296 328.861C122.242 327.306 123.108 325.694 123.899 324.054C124.445 322.92 125.214 322.284 126.624 322.267C127.068 323.001 127.621 323.768 128.024 324.599C130.162 329.068 132.843 333.073 136.73 336.293C138.789 338.003 140.937 339.455 143.322 340.584C146.743 342.204 150.403 342.532 154.151 342.655C157.803 342.779 161.427 341.972 164.681 340.31C173.187 336.062 179.12 329.363 183.152 320.866C183.25 320.663 183.211 320.4 183.237 320.156L183.259 320.092L183.472 319.781L183.783 319.19L184.125 318.724C185.726 316.429 186.648 313.834 187.488 311.197C188.155 309.105 189.293 307.367 191.241 306.222C192.698 305.364 194.324 305.591 195.31 307.017C196.243 308.377 196.914 309.806 196.243 311.589C195.372 313.873 194.843 316.299 193.859 318.527C192.975 320.527 192.986 322.479 193.237 324.539C194.716 336.476 192.895 347.889 187.772 358.777C184.369 366.008 179.843 372.459 174.001 377.955C169.803 381.906 165.117 385.129 160.051 387.835C159.605 388.058 159.179 388.32 158.739 388.572ZM120.337 372.677L120.272 373.084C120.071 374.06 119.871 375.037 119.622 376.254C119.401 375.75 119.227 375.486 119.169 375.2C118.622 372.454 118.064 369.712 117.573 366.96C117.376 365.983 117.301 364.984 117.352 363.989C117.525 361.756 117.836 359.533 118.09 357.303C118.136 357.258 118.212 357.218 118.218 357.168C118.897 352.566 120.207 348.132 121.794 343.769C121.906 343.458 121.97 343.129 122.137 342.502C118.132 346.409 113.706 348.937 108.611 350.226C103.605 351.492 98.5769 351.509 93.4509 350.078V352.676C93.4027 356.271 93.9858 359.78 94.9621 363.221C97.6348 372.638 102.601 380.494 110.78 386.099C115.098 389.053 119.824 390.951 125.11 391.257C125.455 391.365 125.796 391.547 126.147 391.568C133.05 392.007 139.389 389.785 145.684 387.38C146.084 387.198 146.471 386.987 146.841 386.749C149.719 385.132 152.127 383.009 154.304 380.505C158.078 376.162 160.877 371.341 162.567 365.842C163.599 362.485 164.744 359.166 165.876 355.839C166.53 353.9 167.236 351.98 168.052 349.663C163.413 351.806 158.87 352.488 154.215 352.782C150.07 353.043 146.049 352.6 142.211 351.033C137.509 349.111 133.801 345.828 130.46 342.089C130.149 341.734 129.81 341.395 129.39 340.951C129.065 341.517 128.768 341.921 128.583 342.375C127.551 345.002 126.346 347.586 125.577 350.291C123.978 355.898 122.585 361.563 121.181 367.223C120.793 368.79 120.665 370.419 120.416 372.021C120.401 372.238 120.373 372.457 120.345 372.677H120.337Z" fill="#03020B"/>
<path d="M183.239 320.151C183.212 320.389 183.251 320.658 183.153 320.862C179.122 329.358 173.189 336.058 164.683 340.305C161.429 341.967 157.805 342.774 154.153 342.65C150.404 342.527 146.746 342.199 143.324 340.579C140.939 339.45 138.79 337.995 136.732 336.288C132.845 333.068 130.171 329.063 128.025 324.595C127.624 323.757 127.071 322.99 126.626 322.263C125.216 322.28 124.449 322.916 123.9 324.049C123.109 325.689 122.243 327.3 121.298 328.856C118.167 334.015 113.74 337.701 108.258 340.169C104.824 341.716 101.291 341.471 97.728 340.82C88.1197 339.06 81.9489 332.975 77.6718 324.651C76.5011 322.376 75.7548 319.878 74.8732 317.462C74.6665 316.897 74.7038 316.246 74.6292 315.635C75.618 316.723 76.5959 317.828 77.6003 318.9C82.1914 323.819 87.8616 327.054 93.9872 329.685C98.8069 331.754 103.69 331.905 109.014 330.887C108.656 330.313 108.379 329.798 108.042 329.332C103.138 322.556 99.2859 315.077 96.6179 307.149C96.4142 306.546 95.727 305.841 96.4406 305.103C97.6067 306.303 98.7028 307.59 99.9543 308.688C104.067 312.314 108.972 314.391 114.267 315.475C124.826 317.633 135.014 316.602 144.647 311.535C148.493 309.514 151.732 306.785 154.031 303.037C154.149 302.894 154.286 302.767 154.437 302.66C154.151 303.662 153.952 304.699 153.565 305.66C150.563 313.093 146.527 319.941 141.785 326.387C141.463 326.824 141.188 327.294 140.724 328.001C142.542 328.723 144.165 329.327 145.756 330.007C150.071 331.851 154.534 331.821 159.05 331.095C164.204 330.259 169.215 328.951 173.946 326.661C177.031 325.167 179.815 323.295 182.186 320.817C182.471 320.528 182.887 320.37 183.239 320.151Z" fill="#B49B92"/>
<path d="M74.3167 314.674C74.27 314.504 74.2218 314.336 74.1752 314.167C74.2234 314.341 74.2716 314.509 74.3167 314.674Z" fill="#B49B92"/>
<path d="M231.024 200.721C237.457 200.63 242.975 202.981 247.824 206.992C254.623 212.616 258.174 219.964 258.944 228.697C259.944 240.046 256.441 249.927 248.826 258.277C244.197 263.353 238.295 266.192 231.371 266.517C224.334 266.853 218.345 264.26 213.205 259.564C206.997 253.893 203.614 246.677 202.267 238.54C200.557 228.227 202.78 218.759 209.467 210.582C213.727 205.371 219.247 202.168 225.969 201.209C227.644 200.975 229.339 200.881 231.024 200.721Z" fill="#EDFFFF"/>
<path d="M104.095 218.822C104.102 227.075 97.6036 233.592 89.5515 233.353C86.2213 233.253 83.3326 232.003 80.9025 229.709C77.793 226.775 75.9755 223.14 75.8185 218.912C75.5682 212.182 79.85 206.451 87.1479 205.469C90.9912 204.952 94.7848 205.406 98.1493 207.67C101.94 210.22 104.09 214.237 104.095 218.822Z" fill="#FDFDFD"/>
<path d="M70.1065 257.218C70.1151 257.344 70.1151 257.469 70.1065 257.595C69.7287 260.409 68.4927 261.996 65.4423 260.269C64.1518 259.535 62.9733 258.573 61.8353 257.607C59.1798 255.36 56.8601 252.857 55.9272 249.358C55.5401 247.918 55.1934 246.418 56.4512 245.334C57.7339 244.228 59.385 244.298 60.9086 244.836C61.8442 245.194 62.7193 245.693 63.5035 246.316C66.1979 248.367 68.2361 250.961 69.4862 254.117C69.8717 255.088 70.0101 256.156 70.2635 257.179L70.1065 257.218Z" fill="#FDFDFD"/>
<path d="M102.644 291.109C105.287 288.064 108.456 285.602 112.273 284.268C117.795 282.34 123.509 281.109 129.403 281.34C133.383 281.496 137.277 282.239 140.471 284.916C141.307 285.614 141.96 286.533 142.696 287.351L142.477 287.713C142.03 287.654 141.578 287.631 141.141 287.53C136.433 286.441 131.691 285.568 126.837 285.608C121.761 285.65 116.702 285.945 111.727 287.059C108.44 287.788 105.485 289.26 102.644 291.109Z" fill="#F3F6F6"/>
<path d="M118.098 357.302C117.843 359.53 117.532 361.753 117.36 363.987C117.309 364.983 117.383 365.981 117.581 366.958C118.072 369.713 118.63 372.456 119.177 375.198C119.235 375.484 119.409 375.749 119.63 376.252C119.878 375.035 120.079 374.059 120.28 373.082L120.345 372.675C120.373 372.456 120.401 372.237 120.427 372.017C120.738 371.512 121.128 371.039 121.334 370.497C122.817 366.557 124.372 362.653 126.963 359.276C127.896 358.054 128.93 356.899 130.073 355.534C135.637 363.359 142.464 369.06 152.086 371.237C150.753 372.989 149.715 374.561 148.472 375.946C144.213 380.682 139.283 384.643 134.02 388.199C131.334 390.015 128.504 391.464 125.116 391.25C119.83 390.939 115.104 389.051 110.786 386.091C102.607 380.494 97.6409 372.63 94.9683 363.213C93.992 359.772 93.4136 356.263 93.4571 352.669C93.8412 352.852 94.2594 352.98 94.6061 353.225C98.9811 356.235 103.869 357.512 109.124 357.603C111.82 357.65 114.494 357.487 117.145 356.952C117.423 356.901 117.776 357.179 118.098 357.302Z" fill="#FEC18D"/>
<path d="M125.109 391.256C128.496 391.467 131.328 390.021 134.013 388.205C139.275 384.65 144.205 380.688 148.464 375.952C149.708 374.567 150.745 372.998 152.079 371.243C142.456 369.066 135.629 363.361 130.065 355.54C128.93 356.905 127.902 358.06 126.956 359.282C124.364 362.659 122.809 366.563 121.326 370.503C121.121 371.046 120.726 371.518 120.419 372.024C120.668 370.422 120.796 368.793 121.184 367.226C122.584 361.566 123.983 355.901 125.58 350.295C126.357 347.589 127.554 345.008 128.586 342.378C128.765 341.924 129.068 341.52 129.393 340.954C129.813 341.398 130.147 341.731 130.463 342.092C133.804 345.823 137.512 349.114 142.214 351.036C146.052 352.603 150.073 353.046 154.218 352.785C158.868 352.491 163.411 351.809 168.055 349.666C167.234 351.983 166.528 353.903 165.879 355.842C164.754 359.169 163.602 362.488 162.57 365.845C160.88 371.344 158.082 376.165 154.307 380.508C152.13 383.012 149.719 385.135 146.844 386.752C146.474 386.99 146.087 387.201 145.687 387.383C139.392 389.788 133.053 392.01 126.15 391.571C125.794 391.545 125.454 391.363 125.109 391.256Z" fill="#B37657"/>
<path d="M118.098 357.302C117.776 357.179 117.423 356.901 117.137 356.958C114.494 357.493 111.812 357.656 109.116 357.609C103.861 357.518 98.9733 356.241 94.5983 353.231C94.2516 352.993 93.8334 352.858 93.4493 352.675V350.077C98.58 351.507 103.603 351.49 108.61 350.224C113.708 348.936 118.134 346.408 122.136 342.5C121.968 343.122 121.904 343.457 121.792 343.768C120.211 348.13 118.902 352.564 118.216 357.166C118.219 357.216 118.143 357.257 118.098 357.302Z" fill="#B37657"/>
</svg>
