<svg width="2896" height="2716" viewBox="0 0 2896 2716" fill="none" xmlns="http://www.w3.org/2000/svg">
<path d="M2558.73 999.68C2549.1 1032.59 2539.02 1065.39 2530.09 1098.49C2527.09 1109.64 2526.09 1121.55 2525.7 1133.17C2524.44 1167.51 2525.36 1201.99 2522.76 1236.17C2518.86 1287.43 2510.9 1338.08 2485.42 1384.04C2458.59 1432.44 2421.49 1470.18 2370.54 1493.13C2347.61 1503.46 2323.02 1505.04 2298.28 1506.42C2285.53 1507.14 2272.76 1510.07 2260.34 1513.29C2250.93 1515.72 2250.22 1517.76 2251.16 1527.29C2255.7 1573.29 2257.59 1619.34 2255.16 1665.4C2253.27 1700.8 2249.5 1736.18 2244.85 1771.4C2238.44 1818.79 2228.29 1865.6 2214.51 1911.4C2215.93 1911.56 2217.11 1912.05 2217.99 1911.73C2254.14 1898.36 2291.76 1890.73 2329.37 1883.02C2376.86 1873.33 2422.67 1858.75 2463.43 1832.02C2525.66 1791.21 2563.16 1734.02 2572.43 1659.54C2575.01 1638.76 2575.43 1617.72 2577.55 1596.86C2579.74 1574.86 2581.36 1552.58 2585.62 1530.86C2592.99 1493.31 2612.43 1462.06 2639.51 1435.13C2679.18 1395.67 2724.6 1364.37 2773.82 1338.24C2788.76 1330.3 2804.51 1323.95 2817.96 1313.1C2829.68 1303.65 2838.2 1292.75 2843.18 1278.42C2846.77 1268.58 2851.31 1259.11 2856.74 1250.15C2870.51 1226.68 2881.35 1201.94 2890.81 1176.52C2891.79 1173.33 2893.41 1170.38 2895.58 1167.85C2895.36 1171.1 2895.52 1174.43 2894.84 1177.58C2893.65 1183.11 2892.16 1188.57 2890.4 1193.95C2882.91 1216.63 2877.78 1239.38 2878.54 1263.77C2879.25 1286.1 2872.75 1307.59 2862.71 1327.86C2854.8 1343.86 2843.93 1357.08 2829.16 1366.99C2782.54 1398.28 2747.3 1440.18 2718.91 1487.85C2706.34 1508.96 2696.76 1531.91 2686.55 1554.35C2665.98 1599.59 2647.03 1645.59 2625.29 1690.25C2607.64 1726.49 2596.15 1764.55 2584.36 1802.78C2570.08 1849.05 2556 1895.58 2531.89 1938.03C2507.89 1980.22 2484.03 2022.48 2453.75 2060.7C2411.03 2114.62 2357.19 2151.09 2289.31 2164.89C2259.69 2170.89 2229.71 2175.31 2199.77 2179.68C2157.67 2185.81 2116.48 2195.21 2076.83 2210.89C2071.16 2212.97 2066.3 2216.8 2062.95 2221.83C2025.28 2277.25 1981.14 2327.29 1933.55 2374.24C1884.24 2422.84 1830.76 2467.01 1773.71 2506.24C1692.71 2562.05 1606.84 2608.44 1514.61 2642.78C1444.9 2668.91 1372.79 2688.14 1299.32 2700.19C1260.61 2706.47 1221.74 2710.57 1182.62 2713.29C1137.29 2716.44 1091.95 2716.38 1046.7 2714.23C989.78 2711.52 933.43 2703.36 877.54 2692.23C786.32 2673.98 698.86 2644.35 614.79 2604.68C540.51 2569.68 471.59 2525.92 406.89 2475.42C397.97 2468.42 389.12 2461.42 379.77 2455.04C360.5 2441.94 345.32 2424.49 328.9 2408.33C290.77 2370.81 254.68 2331.49 221.76 2289.33C175.404 2229.88 135.778 2165.48 103.61 2097.3C61.675 2008.73 31.7088 1914.98 14.4998 1818.51C7.59977 1780 2.55977 1741.12 1.60977 1701.89C0.819769 1669.14 -0.710231 1636.33 0.379769 1603.62C3.46977 1510.43 16.2098 1418.62 42.8198 1329C57.3398 1280.06 75.2898 1232.44 95.6898 1185.68C97.4154 1181.64 98.3685 1177.32 98.4998 1172.93C99.7498 1126.02 100.5 1079.09 101.95 1032.19C103.08 996.27 104.35 960.33 106.87 924.49C112.54 843.69 120.17 763.09 132.46 682.95C147.15 587.09 166.89 492.43 196.08 399.87C221.57 319.06 253.08 240.87 298.89 169.17C320.98 134.56 346.79 103.09 377.76 75.85C417.82 40.61 465.19 23.39 517.34 16.94C563.15 11.28 604.26 24.76 643.67 46.45C686.57 70.06 721.19 103.11 752.05 140.5C796.38 194.21 830.93 254 860.94 316.57C896.16 389.96 924.4 466.07 947.94 543.93C949.21 548.12 950.24 552.38 951.77 558.01C1060.07 544.31 1168.71 542.59 1277.96 559.07C1284.83 542.39 1291.28 526.36 1297.96 510.45C1338.3 414.88 1384.21 322.22 1442.25 235.95C1475.32 186.79 1511.9 140.49 1555.25 99.95C1596.11 61.68 1641.3 30.25 1695.8 14.27C1724.19 5.94001 1753.02 -0.129988 1782.8 0.0500121C1812.28 0.230012 1840.11 7.30001 1867.06 19.54C1921.88 44.42 1962.85 84.66 1996.84 133.16C2034.06 186.26 2060.99 244.51 2082.97 305.16C2112.21 385.86 2132.78 468.9 2146.76 553.5C2155.61 607.03 2162.86 660.83 2170.93 715.17C2173.04 711.17 2175.36 706.86 2177.56 702.49C2204.55 648.889 2240.17 600.094 2283 558.06C2288.21 552.91 2295.59 549.41 2302.58 546.75C2311.95 543.18 2320.06 547.33 2326.45 554.37C2329.62 558.047 2332.46 561.996 2334.94 566.17C2353.62 595.77 2377.23 621.29 2400.85 646.88C2424.47 672.47 2453.4 688.02 2487.58 694.26C2498.34 696.065 2508.99 698.441 2519.49 701.38C2532.4 705.18 2542.03 700.15 2549.17 690.59C2556.85 680.29 2563.17 668.96 2569.74 657.86C2573.01 652.275 2575.85 646.452 2578.25 640.44C2588.44 615.277 2603.34 592.29 2622.15 572.71C2641.53 552.31 2663.56 535.53 2690.32 525.71C2691.91 525.331 2693.53 525.053 2695.16 524.88C2687.56 531.43 2681.54 536.75 2675.39 541.88C2652.78 560.79 2640.2 584.3 2640.54 614.43C2640.75 633.01 2637.48 651.3 2633.54 669.43C2627.59 696.58 2622.25 723.88 2616.74 751.13C2610.74 780.65 2598.55 807.92 2586.74 835.39C2576.28 859.76 2557.07 870.39 2531.74 868.65C2512.09 867.32 2492.58 863.43 2473.11 860.11C2428.11 852.45 2391.11 829.57 2357.16 800.21C2342.15 787.292 2326.46 775.188 2310.16 763.95C2288.81 749.13 2277.36 750.66 2259.46 769.84C2252.51 777.192 2246.39 785.284 2241.2 793.97C2215.69 837.4 2195.43 883.11 2185.33 932.69C2183.02 943.99 2183.58 955.97 2183.66 967.63C2183.8 987.45 2185.21 1007.28 2185.02 1027.1C2184.6 1071.23 2183.56 1115.36 2182.65 1159.48C2182.54 1164.56 2181.65 1169.62 2180.92 1175.93C2184.7 1174.17 2187.26 1173.12 2189.69 1171.83C2217.51 1157 2245.03 1157.49 2270.69 1175.83C2292.33 1191.33 2313.03 1208.21 2333.58 1225.15C2350.83 1239.38 2368.08 1253.35 2389.96 1259.82C2396.53 1261.78 2403.25 1263.24 2410.04 1264.18C2430.39 1266.96 2446.27 1258.95 2458.8 1243.18C2472.94 1225.44 2481.43 1204.89 2486.8 1183.28C2493.23 1157.46 2497.8 1131.18 2503.8 1105.28C2506 1095.49 2509.33 1085.99 2513.73 1076.97C2527.11 1050.24 2541.31 1023.92 2555.18 997.44L2558.73 999.68ZM1856.92 2278.92L1854.6 2279.92C1847.08 2289.84 1838.06 2298.98 1832.37 2309.86C1821.14 2331.32 1811.67 2353.71 1801.69 2375.86C1799.08 2381.63 1797.26 2387.75 1795.08 2393.71C1800.22 2388.39 1804.79 2382.54 1808.72 2376.27C1830.3 2343.34 1854.23 2312.27 1883.11 2285.36C1912.22 2258.42 1943.39 2233.78 1976.33 2211.68C2003.1 2193.39 2033.24 2180.61 2065 2174.09C2109.36 2165.01 2153.56 2155.21 2197.82 2145.69C2235.06 2137.69 2271.53 2127.49 2305.53 2109.69C2345.74 2088.69 2382.65 2063.8 2407.53 2024.48C2410.12 2020.39 2413.29 2016.66 2416.23 2012.79C2439.4 1982.3 2457.83 1949.27 2469.63 1912.72C2470.13 1911.14 2470.02 1909.37 2470.35 1906.17C2453.02 1920.23 2437.24 1933.35 2421.1 1946.02C2402.66 1960.5 2383.59 1974.19 2365.34 1988.9C2313.1 2030.97 2256.5 2064.39 2190.74 2080.96C2167.74 2086.76 2145.24 2094.74 2122.51 2101.73C2098.51 2108.73 2074.51 2115.39 2050.63 2122.73C2027.84 2129.77 2006.35 2140.47 1987 2154.4C1950.39 2180.53 1918.15 2211.68 1886.35 2243.29C1884.74 2244.9 1884.28 2247.67 1883.29 2249.91L1883.61 2249.61C1871.41 2256.53 1863.34 2267.19 1856.77 2279.21L1856.92 2278.92ZM1734.68 2373.08C1738.94 2365.28 1742.68 2357.08 1747.55 2349.75C1774.49 2309.28 1805.37 2271.91 1839.13 2237.02C1876.44 2198.48 1901.08 2153.67 1910.02 2100.57C1913.29 2081.16 1915.48 2061.74 1909.5 2042.8C1907.04 2054.72 1905.01 2067.06 1901.91 2079.12C1894.44 2108.21 1880.26 2134.69 1868.14 2161.9C1862.62 2174.29 1854.49 2185.78 1846.14 2196.6C1833.82 2212.6 1820.04 2227.43 1807.24 2243.05C1783.14 2272.47 1759.49 2302.33 1743.39 2337.05C1738.39 2347.85 1736.29 2359.99 1732.87 2371.52C1732.33 2373.27 1731.8 2375.03 1731.27 2376.79L1732.27 2377.12L1734.68 2373.08ZM2080.51 562.46L2082.51 563.97C2082.69 563.622 2082.81 563.252 2082.89 562.87C2083.23 553.99 2082.68 544.97 2084.03 536.25C2088.55 508.241 2086.07 479.551 2076.82 452.73C2070.03 432.95 2063.35 413.14 2056.62 393.34C2056.11 391.05 2055.92 388.64 2055.07 386.49C2037.98 343.16 2017.56 301.4 1995.07 260.7C1969.57 214.7 1942.07 169.86 1908.25 129.29C1905.14 125.56 1901.78 122.05 1898.38 118.59C1894.98 115.13 1891.59 112.09 1888.18 108.85C1892.79 119.397 1898.38 129.491 1904.87 139C1956.87 215.265 1998.92 297.86 2030 384.78C2042.55 419.83 2050.08 456.2 2059.17 492.19C2065.14 515.9 2073.32 539.05 2080.51 562.46ZM2157.04 1212.46C2116.82 1219.61 2068.58 1246.84 2061.99 1267.75C2067.9 1262.99 2072.12 1258.75 2077.08 1255.75C2117.93 1230.75 2161.82 1220.93 2209.38 1229.91C2234.38 1234.62 2252.3 1249.71 2267.52 1268.81C2288.03 1294.55 2314.79 1309.3 2346.59 1316.97C2374.48 1323.71 2400.17 1317.58 2425.75 1307.73C2426.59 1307.41 2427.04 1306.06 2428.85 1303.55C2410.46 1298.75 2393.21 1293.19 2375.54 1289.87C2349.06 1284.87 2323.67 1277.87 2301.85 1261.27C2295.85 1255.27 2289.71 1249.37 2283.73 1243.33C2261.79 1221.14 2236.31 1206.84 2204.07 1208.54C2188.36 1209.31 2172.71 1211.08 2157 1212.43L2157.04 1212.46ZM568.07 84.32C555.74 82.56 543.37 79.16 531.07 79.32C494.88 79.88 462.28 92.24 432.67 112.8C403.78 132.88 380 158.07 358.93 186C322.84 233.87 295.93 286.73 274.3 342.4C221.73 477.73 194.72 619.06 176.72 762.4C173.56 787.58 171.21 812.88 168.97 838.17C165.81 873.9 162.74 909.64 160.33 945.43C158.67 970 157.96 994.65 157.27 1019.28C156.82 1035.18 157.18 1051.1 157.18 1067.01L159.18 1067.43L205.62 997.23C209.34 993.07 213.36 989.14 216.71 984.71C242.556 950.46 270.584 917.912 300.62 887.27C312.52 875.11 325.06 863.59 336.93 851.41C340.1 848.15 343.69 843.65 343.98 839.51C346.14 808.51 347.33 777.39 349.24 746.35C350.34 728.23 352.24 710.16 353.69 692.06C354.6 680.41 355.24 668.75 356.01 657.06C359.383 632.733 362.756 608.4 366.13 584.06C373.95 528.44 384.31 473.34 400.38 419.45C409.29 389.59 419.79 360.36 435.79 333.38C448.85 311.33 466.22 296.23 493.1 293.67C501.52 292.87 508.98 293.39 516.62 296.52C531.42 302.59 542.29 313.15 550.93 326.25C567.36 351.17 577.32 378.92 585.67 407.3C606.11 476.87 616.75 548.3 624.67 620.12C625.88 631.12 627.02 642.12 628.34 654.53C672.867 634.065 718.563 616.244 765.19 601.16L896.06 566C896.336 565.485 896.461 564.903 896.42 564.32C895.57 560.79 894.66 557.32 893.58 553.82C873.93 490.88 851.35 429.06 824.58 368.73C796.45 305.22 763.08 244.89 719.25 190.73C694.25 159.8 667.34 130.73 632.7 110.18C612.58 98.21 591.86 87.36 568.07 84.32ZM738.27 2566.49C746.59 2569.25 754.85 2572.21 763.27 2574.72C804.58 2587.12 846.27 2597.48 889.58 2600.22C911.64 2602.42 933.67 2605.77 955.79 2606.57C995.029 2607.96 1034.29 2604.54 1072.7 2596.39C1134.43 2583.39 1195.02 2566.66 1253.41 2542.11C1312.18 2517.4 1368.81 2489.23 1419.1 2449.51C1421.41 2447.68 1423.57 2445.66 1427.42 2442.33C1400.09 2449.48 1374.88 2456.07 1348.8 2458.33C1368.65 2446.28 1388.73 2435.12 1408.8 2423.86C1444.21 2403.97 1478.09 2381.91 1504.88 2350.86C1512.41 2342.12 1519.79 2332.32 1523.88 2321.72C1530.34 2304.92 1533.96 2287.03 1538.78 2269.61C1508.44 2289.67 1479.78 2310.61 1447.46 2325.61C1459.54 2310.08 1471.86 2295.11 1484.55 2280.45C1509.65 2251.45 1530.08 2219.59 1543.15 2183.37C1545.26 2177.71 1546.31 2171.72 1546.26 2165.68C1544.91 2117.68 1536.85 2070.82 1517.62 2026.56C1511.56 2012.56 1502.55 1999.91 1494.62 1986.83C1491.37 1981.49 1486.41 1978.83 1479.94 1977.35C1428.49 1965.29 1379.09 1947.49 1332.81 1921.81C1261.09 1882.01 1201.99 1827.01 1147.71 1766.39C1135.33 1752.56 1123.52 1738.22 1111.46 1724.12C1109.53 1721.12 1107.78 1717.9 1105.65 1715C1038.9 1624 988.57 1525 956.35 1416.82C932.67 1337.36 920.65 1256.14 919.04 1173.35C918.74 1158.03 919.69 1142.65 920.63 1127.35C921.93 1106.42 923.25 1085.48 925.49 1064.64C932.341 1001.48 947.856 939.566 971.6 880.64C1012.13 779.34 1072.52 692.81 1160.6 626.94C1161.39 626.35 1161.73 625.16 1162.75 623.45C1160.61 623.044 1158.45 622.76 1156.28 622.6C1114.63 622.47 1073 621.73 1031.35 624.74C988.219 627.75 945.294 633.198 902.78 641.06C823.152 655.926 745.383 679.428 670.85 711.15C526.54 772.62 402.32 861.43 300.45 981.31C232.22 1061.61 177.8 1150.11 137.86 1247.54C105.16 1327.31 82.4898 1409.84 71.8598 1495.47C68.6298 1521.47 65.9298 1547.65 64.7598 1573.82C63.2898 1606.94 61.9098 1640.23 63.6198 1673.28C65.4998 1709.48 70.0398 1745.62 75.1698 1781.54C78.8198 1807.05 85.3698 1832.15 90.6298 1857.43C91.1098 1860.59 91.3498 1863.8 92.1198 1866.88C112.123 1946.18 141.711 2022.74 180.23 2094.88C236.34 2200.44 310.23 2291.81 398.92 2371.48C460.09 2426.41 527.92 2471.71 600.83 2509.32C645 2532.1 690.66 2551.74 738.27 2566.49ZM1486.54 1245.73C1483.72 1245.73 1480.89 1245.73 1478.06 1245.73C1408.84 1247.1 1352.77 1275.33 1311.06 1330.28C1266.46 1389.09 1249.59 1456.12 1258.85 1529.14C1267.56 1597.77 1294.04 1658.2 1345.33 1706.4C1390.33 1748.68 1442.87 1768.91 1504.78 1761.4C1559.78 1754.76 1604.09 1727.98 1638.56 1685.57C1693.79 1617.57 1717.97 1539.57 1706.04 1452.46C1695.23 1373.54 1656.42 1311.36 1586.25 1270.87C1555.51 1253.15 1522.26 1244.22 1486.54 1245.73ZM1265.77 1173.41C1305.47 1172.79 1338.98 1163.41 1369.33 1143.92C1387.23 1132.43 1402.75 1118.36 1412.03 1098.63C1421.94 1077.57 1418.76 1057.53 1403.14 1040.27C1396.13 1032.37 1387.35 1026.24 1377.51 1022.4C1359.12 1015.31 1339.74 1013.63 1320.34 1014.19C1295.04 1014.92 1272.89 1025.99 1250.8 1037.19C1223.98 1050.84 1205.37 1071.07 1194.95 1099.59C1185.66 1124.98 1192.4 1147.38 1215.79 1161.06C1232.33 1170.77 1250.7 1173.23 1265.77 1173.41ZM2175.61 769.68L2176.93 771.22C2181.77 766.43 2187.28 762.15 2191.31 756.76C2204.61 738.97 2217.05 720.53 2230.45 702.76C2245.3 683.13 2260.26 663.51 2276.28 644.84C2290.11 628.73 2298.13 628.6 2314.35 641.71C2321.26 647.3 2327.16 654.15 2334.23 659.5C2358.76 678.02 2383.42 696.37 2408.37 714.31C2421.65 723.87 2436.89 729.4 2452.87 732.82C2482.18 739.1 2510.16 732.82 2537.93 724.06C2507.78 728.68 2478.93 725.16 2452.93 708.57C2441.08 701.02 2429.33 692.72 2419.42 682.86C2399.86 663.41 2379.42 645.05 2357.33 628.65C2348.87 622.38 2339.96 616.88 2328.95 615.93C2301.2 613.55 2278.95 621.73 2261.16 644.76C2233.66 680.36 2209.65 718.26 2184.56 755.46C2181.42 760.14 2178.58 765 2175.61 769.68ZM2042.18 1895.05L2044.82 1896.86C2046.54 1895.32 2048.37 1893.86 2049.95 1892.22C2074.6 1866.22 2095.75 1837.65 2110.07 1804.65C2131.69 1754.59 2147.05 1702.05 2155.81 1648.23C2158.62 1631.23 2161.23 1614.08 2159.81 1596.6C2157.11 1602.4 2155 1608.47 2153.53 1614.7C2144.86 1653.38 2134.15 1691.46 2118.22 1727.79C2099.22 1771.07 2079.33 1813.95 2059.77 1856.99C2054 1869.71 2048.05 1882.37 2042.18 1895.05Z" fill="#01010A"/>
<path d="M2586.21 955.4C2580.97 927.93 2584.21 903.72 2600.71 882.96C2618.66 860.32 2641.21 843.64 2669.94 836.66C2684.94 833.01 2699.27 833.96 2713.19 841.71C2732.31 852.37 2746.47 868.43 2761.34 883.82C2772.24 895.11 2781.34 908.26 2795.13 917.15C2802.36 913.79 2803.5 906.47 2805.28 900.25C2816.09 862.32 2826.44 824.25 2836.91 786.41C2837.42 787.41 2838.98 788.96 2839.1 790.66C2840.36 808.35 2841.57 826.04 2842.44 843.75C2843.23 859.87 2843.68 876 2844.09 892.13C2844.64 913.92 2840.47 934.73 2829.56 953.76C2821.56 967.76 2813.38 981.76 2804.4 995.17C2791.56 1014.33 2777.32 1018.01 2754.92 1013.57C2729.02 1008.43 2709.44 993.57 2693.05 973.68C2678.5 956.02 2659.97 942.92 2641.91 929.29C2636.38 925.12 2630.53 925.5 2624.91 928.95C2616.33 934.21 2607.85 939.633 2599.48 945.22C2595.27 948 2591.4 951.39 2586.21 955.4ZM2611.45 899.24L2612.77 899.97C2616.39 896.41 2619.87 892.69 2623.66 889.31C2640.96 873.87 2658.89 861.23 2684.49 867.48C2692.39 869.41 2701.75 869.8 2710.77 865.73C2702.86 851.8 2692.18 842.73 2676.6 843.81C2667.38 844.636 2658.44 847.454 2650.41 852.07C2635 860.79 2624.41 874.82 2614.93 889.55C2613.12 892.37 2612.58 896 2611.45 899.24Z" fill="#03040C"/>
<path d="M2558.73 999.68L2555.18 997.61C2557.01 994.517 2558.84 991.423 2560.65 988.33L2563.03 989.5C2561.6 992.893 2560.16 996.287 2558.73 999.68Z" fill="#A96A47"/>
<path d="M90.6196 1857.44C85.3596 1832.15 78.8096 1807.05 75.1596 1781.54C70.0296 1745.62 65.4896 1709.48 63.6096 1673.28C61.8996 1640.28 63.2796 1606.94 64.7496 1573.82C65.9196 1547.65 68.6196 1521.49 71.8496 1495.47C82.4896 1409.84 105.16 1327.31 137.85 1247.54C177.79 1150.11 232.21 1061.61 300.44 981.31C402.32 861.43 526.54 772.62 670.88 711.17C745.413 679.448 823.182 655.946 902.81 641.08C945.324 633.218 988.249 627.77 1031.38 624.76C1073.03 621.76 1114.66 622.49 1156.31 622.62C1158.48 622.78 1160.64 623.064 1162.78 623.47C1161.78 625.18 1161.42 626.37 1160.63 626.96C1072.52 692.83 1012.13 779.36 971.63 880.66C947.886 939.586 932.371 1001.5 925.52 1064.66C923.28 1085.5 921.96 1106.44 920.66 1127.37C919.72 1142.68 918.77 1158.06 919.07 1173.37C920.68 1256.16 932.7 1337.37 956.38 1416.84C988.57 1525 1038.9 1624 1105.51 1714.89C1107.64 1717.79 1109.39 1720.96 1111.31 1724.01C1108.18 1726.53 1105.02 1729.01 1101.94 1731.6C1089.57 1742.01 1076.26 1751.52 1065.09 1763.1C1044.08 1785.07 1026.11 1809.77 1011.68 1836.53C1005.35 1848.12 1001.21 1860.91 996.08 1873.16C989.58 1863.5 983.96 1853.08 976.41 1844.33C960.57 1825.97 940.55 1812.84 918.52 1803.03C874.06 1783.24 827.553 1775.6 779 1780.09C723.91 1785.09 673.74 1801.19 633.7 1841.53C629.31 1830.79 625.7 1819.67 620.39 1809.38C607.53 1784.27 587.94 1764.75 566.39 1747.05C567.824 1746.32 569.3 1745.68 570.81 1745.12C609.45 1733.44 642.05 1712.21 667.96 1681.48C722.25 1617.09 747.54 1542.96 741.58 1458.48C739.428 1425.7 731.045 1393.64 716.88 1364C689.57 1307 646.54 1266.9 587.09 1244.84C560.01 1234.84 531.8 1233.56 503.43 1235.66C473.72 1237.86 445.23 1244.96 418.87 1259.48C375.09 1283.59 343.94 1319.38 322.66 1364.05C295.1 1421.91 288.66 1482.62 301.88 1544.93C311.97 1592.57 331.02 1636.63 362.58 1674.47C369.29 1682.47 376.75 1689.91 383.86 1697.61C357.61 1701.89 330.96 1704.54 305.17 1710.76C243.9 1725.54 189.75 1754.69 142.87 1796.91C123 1814.86 106 1835.54 90.6196 1857.44ZM645.68 1166.11C650.95 1166.11 656.22 1166.29 661.48 1166.11C677.87 1165.45 693.74 1162.11 708.01 1153.93C736.41 1137.68 741.25 1121 734.62 1096.84C729.2 1077.07 718.22 1058.48 700.37 1046.54C668.88 1025.48 634.57 1011.71 595.92 1012.61C586.75 1012.82 577.65 1015.7 568.49 1017.21C554.44 1019.44 541.192 1025.22 530 1034C508.16 1051.1 499.67 1078.51 514.18 1104.12C521.37 1116.79 531.41 1126.61 543.03 1134.86C573.7 1156.64 608.11 1166.67 645.68 1166.11Z" fill="#ECAD74"/>
<path d="M996.08 1873.16C1001.21 1860.91 1005.35 1848.16 1011.68 1836.53C1026.11 1809.77 1044.08 1785.07 1065.09 1763.1C1076.26 1751.52 1089.57 1742.01 1101.94 1731.6C1105.02 1729.01 1108.18 1726.53 1111.31 1724.01C1123.38 1738.11 1135.19 1752.45 1147.57 1766.28C1201.85 1826.9 1260.95 1881.9 1332.67 1921.7C1378.95 1947.38 1428.35 1965.18 1479.8 1977.24C1486.27 1978.76 1491.23 1981.38 1494.48 1986.72C1502.48 1999.8 1511.48 2012.5 1517.48 2026.45C1536.71 2070.71 1544.77 2117.54 1546.12 2165.57C1546.17 2171.61 1545.12 2177.6 1543.01 2183.26C1529.94 2219.48 1509.51 2251.32 1484.41 2280.34C1471.72 2295 1459.41 2309.97 1447.32 2325.5C1479.62 2310.5 1508.32 2289.59 1538.64 2269.5C1533.82 2286.92 1530.2 2304.81 1523.74 2321.61C1519.66 2332.21 1512.28 2342.01 1504.74 2350.75C1477.95 2381.85 1444.07 2403.91 1408.66 2423.75C1388.66 2435.01 1368.56 2446.17 1348.66 2458.22C1374.74 2455.99 1399.95 2449.4 1427.28 2442.22C1423.43 2445.55 1421.28 2447.57 1418.96 2449.4C1368.67 2489.12 1312.04 2517.29 1253.27 2542C1194.88 2566.55 1134.27 2583.24 1072.56 2596.28C1034.15 2604.43 994.889 2607.85 955.65 2606.46C933.53 2605.66 911.5 2602.31 889.43 2600.11C892.25 2598.79 894.94 2596.91 897.9 2596.23C918.914 2591.51 938.492 2581.83 955 2568C973.22 2552.7 990 2535.67 1007 2519C1011.45 2514.64 1014.55 2508.89 1018.27 2503.78C1025.27 2499.78 1032.18 2495.57 1039.27 2491.68C1079.84 2469.5 1116.13 2440.28 1146.45 2405.38C1172.17 2375.89 1192.64 2343.06 1209.45 2307.84C1231.25 2262.07 1242.6 2213.56 1246.2 2163.21C1248.26 2134.54 1246.67 2105.94 1242.45 2077.46C1241.66 2072.16 1242.63 2066.19 1244.28 2061.01C1250.17 2042.52 1256.52 2024.18 1263.05 2005.91C1267.28 1994.11 1262.98 1984.33 1256.05 1975.52C1249.05 1966.52 1240.25 1965.97 1230.49 1971.68C1218.64 1978.61 1211.23 1988.96 1207.33 2001.62C1200.61 2023.4 1191.62 2043.98 1178.4 2062.62C1174.93 2065.04 1171.4 2067.4 1167.99 2069.9C1154.99 2079.4 1142.86 2090.55 1128.84 2098.2C1085.2 2122.02 1037.46 2131.42 988.35 2135.43C974.52 2136.55 962 2132.23 949.35 2128.26C934.81 2123.69 920.35 2118.85 905.52 2111.26C909.3 2105.69 912.25 2100.99 915.52 2096.54C943.98 2058.02 967.98 2016.93 986.37 1972.67C989.57 1964.98 991.37 1956.67 993.79 1948.67C998.79 1934.73 1005 1920.86 1002.93 1905.67C1001.57 1894.77 998.46 1884 996.08 1873.16Z" fill="#FEFEEF"/>
<path d="M566.38 1747.05C587.94 1764.75 607.53 1784.27 620.38 1809.38C625.65 1819.67 629.3 1830.79 633.7 1841.53C628.91 1848.44 623.4 1854.97 619.47 1862.34C608.88 1882.17 602.41 1903.25 607.15 1925.89C609.59 1937.54 614.45 1948.68 618.22 1960.05L619.63 1963.05C620.51 1968.95 620.48 1975.16 622.41 1980.7C639.566 2030.53 663.975 2077.55 694.85 2120.26C697.09 2123.35 699.08 2126.61 701.85 2130.75C683.46 2132.5 667.03 2136.21 649.8 2134.5C624.64 2132.01 602.01 2122.56 579.94 2111.5C539.74 2091.3 503.44 2066.23 478.94 2027.18C478.79 2026.95 478.17 2027.03 477.77 2026.96C475.28 2014.4 472.16 2001.96 470.51 1989.27C469.315 1979.27 469.014 1969.18 469.61 1959.13C470.49 1941.75 461.99 1929.52 445.2 1925.71C443.7 1925.37 441.87 1924.88 440.6 1925.41C429.19 1930.17 418.96 1935.92 414.93 1949.13C411.37 1960.79 412.93 1972.38 413.52 1984.03C414.52 2005.83 415.47 2027.79 423 2048.51C431.83 2072.79 440.91 2097.05 451.34 2120.68C465.4 2152.53 485.79 2180.26 512.69 2202.48C529.12 2216.06 547.02 2227.89 564.5 2240.68C565.63 2262.04 565.84 2284.68 568.22 2307.11C572.66 2349 586.51 2388.04 607.85 2424.29C630.26 2462.37 658.72 2495.16 694.7 2521.14L696.64 2522.83L699.76 2525.13C701.76 2528.38 703.31 2532.21 706.01 2534.77C715.89 2544.12 726.21 2553 736.24 2562.19C737.34 2563.19 737.66 2565.05 738.34 2566.51C690.73 2551.76 645.11 2532.12 600.89 2509.33C527.89 2471.72 460.15 2426.42 398.98 2371.49C310.24 2291.82 236.4 2200.49 180.29 2094.89C141.771 2022.75 112.183 1946.19 92.1799 1866.89C91.4099 1863.81 91.1799 1860.6 90.6899 1857.45C106.1 1835.55 123.02 1814.87 142.94 1796.93C189.82 1754.71 243.94 1725.56 305.24 1710.78C331.03 1704.56 357.68 1701.91 383.94 1697.63C394.18 1705.45 404.02 1713.85 414.72 1720.96C449.42 1743.96 487.5 1755.27 529.35 1751.8C541.69 1750.77 554 1748.66 566.38 1747.05Z" fill="#FEFEEF"/>
<path d="M205.62 997.29L159.18 1067.49L157.18 1067.07C157.18 1051.16 156.82 1035.24 157.27 1019.34C157.96 994.71 158.67 970.06 160.33 945.49C162.74 909.7 165.81 873.96 168.97 838.23C171.21 812.94 173.56 787.64 176.72 762.46C194.72 619.08 221.72 477.75 274.3 342.46C295.92 286.79 322.84 233.93 358.93 186.06C379.99 158.06 403.78 132.92 432.67 112.86C462.28 92.3 494.88 79.94 531.07 79.38C543.37 79.2 555.74 82.6 568.07 84.38C570.21 87.23 571.86 90.73 574.58 92.84C595.25 108.84 611.09 129.38 626.94 149.75C656.62 187.89 680.42 229.55 700.15 273.69C717.937 313.551 732.321 354.845 743.15 397.13C751.05 427.91 756.78 459.3 762.38 490.61C765.38 507.21 766.59 524.2 767.48 541.07C768.3 556.82 767.79 572.65 767.48 588.44C767.4 592.74 765.99 597.02 765.18 601.31C718.554 616.394 672.858 634.215 628.33 654.68C627.01 642.31 625.87 631.29 624.66 620.27C616.76 548.4 606.12 477.02 585.66 407.45C577.31 379.07 567.35 351.32 550.92 326.4C542.28 313.3 531.41 302.74 516.61 296.67C508.97 293.54 501.51 293.02 493.09 293.82C466.21 296.38 448.84 311.48 435.78 333.53C419.78 360.53 409.28 389.74 400.37 419.6C384.3 473.49 373.94 528.6 366.12 584.21C362.7 608.543 359.326 632.877 356 657.21C354.8 658.77 353.21 660.21 352.47 661.93C333.33 707.22 315.05 752.93 295.01 797.79C267.23 860 238.08 921.6 209.66 983.56C207.69 987.85 206.94 992.7 205.62 997.29Z" fill="#ECAC74"/>
<path d="M1486.54 1245.73C1522.26 1244.22 1555.54 1253.15 1586.3 1270.92C1656.47 1311.41 1695.3 1373.59 1706.09 1452.51C1718.02 1539.57 1693.84 1617.66 1638.61 1685.62C1604.14 1728.03 1559.82 1754.81 1504.83 1761.45C1442.92 1768.92 1390.37 1748.69 1345.38 1706.45C1294.09 1658.25 1267.61 1597.82 1258.9 1529.19C1249.64 1456.19 1266.51 1389.14 1311.11 1330.33C1352.77 1275.33 1408.84 1247.15 1478.11 1245.78C1480.89 1245.68 1483.72 1245.73 1486.54 1245.73ZM1668.76 1493.59C1667.58 1481.53 1666.92 1469.4 1665.11 1457.44C1658.36 1412.76 1639.38 1373.66 1606.75 1342.6C1570.75 1308.36 1528.14 1290.76 1476.91 1293.44C1416.99 1296.58 1370.41 1321.88 1337.03 1370.87C1300.49 1424.5 1290.24 1484.01 1303.94 1547.02C1315.61 1600.67 1340.42 1647.2 1384.63 1681.78C1419.96 1709.41 1460.06 1720.44 1504.26 1714.56C1543 1709.4 1575.9 1691.37 1602.09 1662.65C1645.58 1614.96 1667.8 1558.61 1668.76 1493.59Z" fill="#56EEB9"/>
<path d="M765.17 601.25C765.98 596.96 767.39 592.68 767.47 588.38C767.76 572.59 768.27 556.76 767.47 541.01C766.58 524.14 765.34 507.15 762.37 490.55C756.77 459.24 751.04 427.85 743.14 397.07C732.311 354.785 717.926 313.491 700.14 273.63C680.41 229.49 656.61 187.83 626.93 149.69C611.08 129.32 595.24 108.82 574.57 92.78C571.85 90.67 570.2 87.17 568.06 84.32C591.85 87.32 612.57 98.21 632.73 110.19C667.37 130.76 694.25 159.81 719.28 190.74C763.11 244.9 796.48 305.23 824.61 368.74C851.34 429.07 873.92 490.89 893.61 553.83C894.69 557.29 895.61 560.83 896.45 564.33C896.491 564.913 896.366 565.495 896.09 566.01L765.17 601.25Z" fill="#A96B48"/>
<path d="M2122.55 2101.71C2145.28 2094.71 2167.75 2086.71 2190.78 2080.94C2256.54 2064.37 2313.14 2030.94 2365.38 1988.88C2383.63 1974.17 2402.7 1960.48 2421.14 1946C2437.28 1933.33 2453.06 1920.21 2470.39 1906.15C2470.06 1909.35 2470.17 1911.15 2469.67 1912.7C2457.87 1949.25 2439.44 1982.28 2416.27 2012.77C2413.33 2016.64 2410.16 2020.37 2407.57 2024.46C2382.65 2063.78 2345.74 2088.63 2305.57 2109.67C2271.57 2127.45 2235.1 2137.67 2197.86 2145.67C2153.6 2155.19 2109.4 2164.99 2065.04 2174.07C2033.28 2180.59 2003.14 2193.37 1976.37 2211.66C1943.43 2233.76 1912.26 2258.4 1883.15 2285.34C1854.27 2312.25 1830.34 2343.34 1808.76 2376.25C1804.83 2382.52 1800.26 2388.37 1795.12 2393.69C1797.3 2387.69 1799.12 2381.61 1801.73 2375.84C1811.73 2353.73 1821.18 2331.34 1832.41 2309.84C1838.1 2298.96 1847.12 2289.84 1854.65 2279.84L1856.96 2278.84L1856.84 2279.13C1868.18 2271.43 1876.77 2261.24 1883.68 2249.53L1883.36 2249.83C1886.81 2247.23 1890.36 2244.83 1893.67 2241.99C1908.37 2229.32 1922.41 2215.83 1937.67 2203.94C1987.25 2165.39 2042.8 2137.34 2100.56 2113.38C2108.4 2110.13 2116.42 2107.3 2124.36 2104.27L2122.55 2101.71Z" fill="#56EDB8"/>
<path d="M1265.77 1173.41C1250.7 1173.23 1232.33 1170.77 1215.77 1161.1C1192.38 1147.42 1185.64 1125.02 1194.93 1099.63C1205.35 1071.11 1223.93 1050.88 1250.78 1037.23C1272.87 1025.99 1295.02 1014.92 1320.32 1014.23C1339.72 1013.67 1359.1 1015.35 1377.49 1022.44C1387.33 1026.28 1396.11 1032.41 1403.12 1040.31C1418.74 1057.57 1421.92 1077.61 1412.01 1098.67C1402.73 1118.4 1387.21 1132.47 1369.31 1143.96C1339 1163.39 1305.47 1172.79 1265.77 1173.41Z" fill="#FDFDEE"/>
<path d="M205.62 997.29C206.94 992.7 207.69 987.85 209.62 983.56C238.08 921.6 267.23 860 295 797.73C315 752.84 333.32 707.16 352.46 661.87C353.2 660.11 354.79 658.71 355.99 657.15C355.22 668.81 354.58 680.47 353.67 692.15C352.25 710.25 350.32 728.32 349.22 746.44C347.31 777.44 346.12 808.57 343.96 839.6C343.67 843.74 340.08 848.24 336.91 851.5C325.04 863.68 312.5 875.2 300.6 887.36C270.564 918.002 242.535 950.55 216.69 984.8C213.36 989.2 209.34 993.13 205.62 997.29Z" fill="#A96A47"/>
<path d="M738.27 2566.49C737.59 2565.03 737.27 2563.18 736.17 2562.17C726.17 2552.98 715.82 2544.1 705.94 2534.75C703.24 2532.19 701.74 2528.36 699.69 2525.11C703.28 2526.77 706.9 2528.37 710.46 2530.11C723.18 2536.28 735.46 2543.6 748.65 2548.48C779.26 2559.81 810.8 2564.9 843.77 2562.02C869.77 2559.75 894.77 2553.17 919.52 2546.12C933.39 2542.17 946.39 2535.12 959.74 2529.36C979.32 2520.93 998.877 2512.45 1018.41 2503.93C1014.69 2509.04 1011.59 2514.79 1007.14 2519.15C990.14 2535.8 973.33 2552.83 955.14 2568.15C938.633 2581.98 919.054 2591.66 898.04 2596.38C895.04 2597.06 892.39 2598.94 889.57 2600.26C846.31 2597.52 804.57 2587.16 763.27 2574.76C754.85 2572.21 746.59 2569.25 738.27 2566.49Z" fill="#B19B92"/>
<path d="M2175.61 769.68C2178.61 764.95 2181.42 760.14 2184.54 755.51C2209.63 718.31 2233.64 680.41 2261.14 644.81C2278.93 621.81 2301.14 613.6 2328.93 615.98C2339.93 616.93 2348.85 622.43 2357.31 628.7C2379.45 645.1 2399.84 663.46 2419.4 682.91C2429.31 692.77 2441.06 701.07 2452.91 708.62C2478.96 725.21 2507.78 728.73 2537.91 724.11C2510.14 732.82 2482.16 739.11 2452.85 732.87C2436.85 729.45 2421.63 723.87 2408.35 714.36C2383.4 696.42 2358.74 678.07 2334.21 659.55C2327.14 654.2 2321.21 647.35 2314.33 641.76C2298.11 628.65 2290.09 628.76 2276.26 644.89C2260.26 663.56 2245.26 683.18 2230.43 702.81C2217.03 720.53 2204.59 738.97 2191.29 756.81C2187.29 762.2 2181.75 766.48 2176.91 771.27L2175.61 769.68Z" fill="#53E8B4"/>
<path d="M2301.85 1261.21C2323.67 1277.83 2349.06 1284.84 2375.54 1289.81C2393.21 1293.13 2410.46 1298.69 2428.85 1303.49C2427.04 1306 2426.59 1307.35 2425.75 1307.67C2400.17 1317.52 2374.48 1323.67 2346.59 1316.91C2314.79 1309.24 2288.03 1294.49 2267.52 1268.75C2252.3 1249.65 2234.34 1234.56 2209.38 1229.85C2161.82 1220.85 2117.93 1230.65 2077.08 1255.69C2072.08 1258.69 2067.9 1262.96 2061.99 1267.69C2068.58 1246.78 2116.82 1219.55 2156.99 1212.4C2160.91 1212.96 2165.11 1214.72 2168.69 1213.87C2180.34 1211.1 2191.69 1212.87 2203.29 1213.99C2223.21 1215.99 2242.17 1220.55 2258.75 1232.2C2270.58 1240.52 2281.97 1249.46 2293.75 1257.88C2296.06 1259.56 2299.13 1260.14 2301.85 1261.21Z" fill="#55E8B5"/>
<path d="M2080.51 562.46C2073.32 539.05 2065.14 515.9 2059.16 492.19C2050.07 456.19 2042.54 419.83 2029.99 384.78C1998.92 297.86 1956.87 215.265 1904.87 139C1898.37 129.489 1892.77 119.392 1888.15 108.84C1891.56 112.08 1895.05 115.23 1898.35 118.58C1901.65 121.93 1905.11 125.58 1908.22 129.28C1942.04 169.85 1969.54 214.64 1995.04 260.69C2017.57 301.39 2038.04 343.15 2055.04 386.48C2055.89 388.63 2056.04 391.04 2056.59 393.33C2056.81 396.54 2056.49 399.89 2057.33 402.93C2066.39 435.57 2073.47 468.64 2077 502.32C2079.12 522.28 2079.41 542.41 2080.51 562.46Z" fill="#55E7B4"/>
<path d="M1732.88 2371.55C1736.3 2360.02 1738.39 2347.88 1743.4 2337.08C1759.5 2302.33 1783.15 2272.47 1807.25 2243.08C1820.05 2227.46 1833.83 2212.61 1846.15 2196.63C1854.49 2185.81 1862.62 2174.32 1868.15 2161.93C1880.27 2134.72 1894.45 2108.24 1901.92 2079.15C1905.02 2067.09 1907.05 2054.75 1909.51 2042.83C1915.51 2061.77 1913.3 2081.19 1910.03 2100.6C1901.09 2153.7 1876.45 2198.51 1839.14 2237.05C1805.38 2271.94 1774.5 2309.31 1747.56 2349.78C1742.65 2357.15 1738.95 2365.31 1734.69 2373.11C1734.1 2372.56 1733.5 2372.04 1732.88 2371.55Z" fill="#52E5B2"/>
<path d="M2042.18 1895.05C2048.05 1882.37 2053.99 1869.71 2059.77 1856.99C2079.33 1813.99 2099.24 1771.07 2118.22 1727.79C2134.15 1691.46 2144.86 1653.38 2153.53 1614.7C2155 1608.47 2157.11 1602.4 2159.81 1596.6C2161.23 1614.08 2158.62 1631.24 2155.81 1648.23C2147.05 1702.05 2131.69 1754.59 2110.07 1804.65C2095.75 1837.65 2074.6 1866.2 2049.95 1892.22C2048.37 1893.89 2046.54 1895.32 2044.82 1896.86L2042.18 1895.05Z" fill="#52E5B2"/>
<path d="M2122.55 2101.71L2124.36 2104.35C2116.42 2107.35 2108.36 2110.21 2100.56 2113.46C2042.8 2137.46 1987.25 2165.46 1937.67 2204.02C1922.37 2215.91 1908.33 2229.4 1893.67 2242.07C1890.41 2244.88 1886.81 2247.31 1883.36 2249.91C1884.36 2247.67 1884.81 2244.91 1886.42 2243.29C1918.22 2211.68 1950.42 2180.53 1987.07 2154.4C2006.42 2140.45 2027.92 2129.74 2050.71 2122.68C2074.53 2115.37 2098.58 2108.67 2122.55 2101.71Z" fill="#CFF9EC"/>
<path d="M2080.51 562.46C2079.41 542.41 2079.12 522.28 2077.04 502.33C2073.51 468.65 2066.43 435.58 2057.37 402.94C2056.53 399.94 2056.85 396.55 2056.63 393.34C2063.36 413.14 2070.04 432.95 2076.83 452.73C2086.08 479.55 2088.56 508.241 2084.04 536.25C2082.69 544.97 2083.24 553.99 2082.9 562.87C2082.82 563.252 2082.7 563.622 2082.52 563.97L2080.51 562.46Z" fill="#CFF9EC"/>
<path d="M2301.85 1261.21C2299.13 1260.14 2296.06 1259.56 2293.76 1257.91C2282.01 1249.49 2270.62 1240.55 2258.76 1232.23C2242.18 1220.58 2223.22 1216 2203.3 1214.02C2191.72 1212.87 2180.35 1211.13 2168.7 1213.9C2165.12 1214.75 2160.92 1212.99 2157 1212.43C2172.68 1211.08 2188.33 1209.31 2204 1208.43C2236.24 1206.73 2261.72 1221.03 2283.66 1243.22C2289.71 1249.31 2295.81 1255.23 2301.85 1261.21Z" fill="#CFF9EC"/>
<path d="M1883.64 2249.61C1876.73 2261.32 1868.14 2271.51 1856.8 2279.21C1863.37 2267.19 1871.44 2256.53 1883.64 2249.61Z" fill="#CFF9EC"/>
<path d="M1734.68 2373.08L1732.33 2377.15L1731.33 2376.82C1731.86 2375.06 1732.39 2373.3 1732.93 2371.55C1733.52 2372.04 1734.1 2372.55 1734.68 2373.08Z" fill="#52E5B2"/>
<path d="M2611.45 899.24C2612.58 895.99 2613.12 892.37 2614.93 889.55C2624.37 874.82 2635 860.79 2650.41 852.07C2658.44 847.454 2667.38 844.636 2676.6 843.81C2692.18 842.73 2702.86 851.81 2710.77 865.73C2701.77 869.8 2692.39 869.41 2684.49 867.48C2658.89 861.23 2640.96 873.87 2623.66 889.31C2619.87 892.69 2616.39 896.41 2612.77 899.97L2611.45 899.24Z" fill="#52E5B2"/>
<path d="M566.38 1747.05C554.01 1748.66 541.69 1750.77 529.28 1751.79C487.43 1755.26 449.35 1743.98 414.65 1720.95C403.95 1713.84 394.11 1705.44 383.87 1697.62C376.75 1689.92 369.29 1682.52 362.58 1674.48C331.02 1636.64 311.97 1592.58 301.88 1544.94C288.67 1482.63 295.1 1421.94 322.66 1364.06C343.94 1319.39 375.09 1283.6 418.87 1259.49C445.23 1244.97 473.72 1237.87 503.43 1235.67C531.8 1233.57 560.01 1234.81 587.09 1244.85C646.54 1266.91 689.57 1307 716.88 1364C731.034 1393.62 739.413 1425.66 741.57 1458.42C747.57 1542.95 722.24 1617.08 667.95 1681.42C642.04 1712.15 609.44 1733.42 570.8 1745.06C569.288 1745.64 567.813 1746.3 566.38 1747.05ZM487.69 1405.43C487.11 1424.69 493.6 1441.91 503.27 1458.11C538.48 1517.11 620.15 1517.69 655.57 1458.87C678.85 1420.21 673.4 1374.56 642.35 1345.68C618.93 1323.91 590.27 1319.4 559.98 1323.07C517.7 1328.19 487.78 1362.81 487.69 1405.43ZM451.23 1653.69C451.07 1652.82 450.62 1650.46 450.16 1648.11C446.39 1628.8 435.82 1613.27 422.85 1599.11C413.47 1588.86 402.98 1580.03 389.52 1575.7C379.77 1572.57 369.9 1573.15 362.2 1580.26C355.14 1586.79 356.55 1595.5 358.95 1604.04C368.24 1637.04 392.71 1657.54 419.58 1675.04C437.41 1686.69 447.33 1680.87 451.22 1657.61C451.295 1656.3 451.298 1655 451.23 1653.69Z" fill="#01010A"/>
<path d="M618.23 1960.05C614.46 1948.68 609.6 1937.54 607.16 1925.89C602.42 1903.25 608.89 1882.17 619.48 1862.34C623.41 1854.97 628.92 1848.44 633.71 1841.53C673.71 1801.19 723.91 1785.09 779 1780.09C827.587 1775.68 874.093 1783.33 918.52 1803.03C940.52 1812.84 960.57 1825.97 976.41 1844.33C983.96 1853.08 989.58 1863.5 996.08 1873.16C998.46 1884.01 1001.57 1894.77 1003.08 1905.75C1005.15 1920.97 998.98 1934.84 993.94 1948.75C992.974 1949.4 992.106 1950.19 991.36 1951.08C974.22 1978.92 949.31 1997.65 920.24 2011.3C863.96 2037.73 804.98 2044.13 744.16 2033.18C707.16 2026.51 672.51 2013.4 643.78 1988.06C635.12 1980.42 627.66 1971.41 619.66 1963.06L618.23 1960.05ZM669.86 1863.54L656.5 1875.93L658.28 1878.08L675.18 1865.76C692.342 1855.77 711.214 1849.07 730.83 1846C753.546 1842.31 776.477 1840.09 799.48 1839.36C827.54 1838.58 855.18 1840.36 882.63 1845.96C893.97 1848.27 905.31 1850.62 917.4 1853.11C915.29 1844.77 910.57 1839.53 904.84 1834.89C887.84 1821.16 867.9 1815.57 846.76 1812.67C820.28 1809.04 794.37 1813.09 768.47 1817.8C731.62 1824.44 697.51 1837 669.86 1863.54Z" fill="#02010A"/>
<path d="M645.68 1166.11C608.11 1166.67 573.68 1156.64 542.99 1134.85C531.37 1126.6 521.33 1116.78 514.14 1104.11C499.63 1078.5 508.14 1051.11 529.96 1033.99C541.162 1025.2 554.424 1019.41 568.49 1017.18C577.65 1015.67 586.75 1012.79 595.92 1012.58C634.57 1011.68 668.92 1025.45 700.37 1046.51C718.22 1058.45 729.2 1077.04 734.62 1096.81C741.25 1120.97 736.41 1137.65 708.01 1153.9C693.74 1162.05 677.87 1165.42 661.48 1166.08C656.22 1166.29 651 1166.11 645.68 1166.11Z" fill="#FFFEEF"/>
<path d="M1018.41 2503.91C998.863 2512.39 979.307 2520.87 959.74 2529.34C946.39 2535.1 933.39 2542.15 919.52 2546.1C894.72 2553.15 869.79 2559.73 843.77 2562C810.77 2564.88 779.26 2559.79 748.65 2548.46C735.46 2543.58 723.18 2536.26 710.46 2530.09C706.9 2528.37 703.28 2526.77 699.69 2525.09L696.57 2522.79L694.63 2521.1C658.63 2495.1 630.19 2462.33 607.78 2424.25C586.44 2388 572.59 2348.96 568.15 2307.07C565.77 2284.65 565.56 2262 564.43 2240.64C546.95 2227.85 529.05 2216.02 512.62 2202.44C485.72 2180.22 465.33 2152.49 451.27 2120.64C440.84 2097.01 431.76 2072.75 422.93 2048.47C415.4 2027.75 414.47 2005.79 413.45 1983.99C412.9 1972.34 411.3 1960.75 414.86 1949.09C418.86 1935.88 429.12 1930.09 440.53 1925.37C441.8 1924.84 443.63 1925.37 445.13 1925.67C461.92 1929.48 470.42 1941.67 469.54 1959.09C468.944 1969.14 469.245 1979.23 470.44 1989.23C472.09 2001.89 475.21 2014.36 477.7 2026.92C480.61 2046.31 487.06 2064.64 495.47 2082.19C524.12 2142 566.47 2185.19 635.3 2195.44C655.41 2198.44 675.56 2199.34 694.96 2190.83C734.06 2173.68 764.6 2147.09 785.16 2109.43C789.42 2101.62 793.94 2093.9 797.63 2085.82C801.08 2078.25 806.31 2074.66 815.51 2075.35C820.98 2085.35 826.92 2095.43 832.13 2105.88C848.29 2138.3 873.44 2162.04 902.83 2182.43C940.49 2208.56 1013.64 2215.51 1059.71 2191.58C1112.01 2164.4 1149.71 2123.77 1176.08 2071.77C1177.46 2069.04 1177.73 2065.77 1178.52 2062.77C1191.74 2044.13 1200.73 2023.55 1207.45 2001.77C1211.35 1989.11 1218.76 1978.77 1230.61 1971.83C1240.37 1966.12 1249.16 1966.71 1256.17 1975.67C1263.08 1984.48 1267.38 1994.26 1263.17 2006.06C1256.64 2024.33 1250.29 2042.67 1244.4 2061.16C1242.75 2066.34 1241.78 2072.31 1242.57 2077.61C1246.79 2106.09 1248.38 2134.69 1246.32 2163.36C1242.72 2213.71 1231.32 2262.22 1209.57 2307.99C1192.79 2343.21 1172.32 2376.04 1146.57 2405.53C1116.25 2440.43 1079.96 2469.65 1039.39 2491.83C1032.32 2495.7 1025.41 2499.87 1018.41 2503.91ZM775.56 2393.91C773.56 2403.07 771.536 2412.23 769.49 2421.39C764.87 2408.63 761.97 2395.71 759.11 2382.77C752.75 2353.97 756.3 2325.29 760.19 2296.61C760.9 2294.72 761.96 2292.88 762.27 2290.93C766.34 2265.24 774.14 2240.58 782.67 2216.11C783.67 2213.36 784.41 2210.55 785.92 2205.68C731.68 2256.04 670.1 2270.46 600.55 2254.55V2272.36C601.03 2276.36 601.88 2280.36 601.92 2284.28C602.17 2307.15 607.38 2329.13 614.45 2350.62C635.32 2414.04 672.32 2464.89 731.69 2497.55C759.4 2512.8 789.15 2520.94 821.06 2519.92C833.92 2519.34 847.13 2520.38 859.58 2517.79C878.87 2513.79 897.58 2507 916.66 2501.96C935.04 2497.1 950.96 2487.54 965.91 2476.49C983.91 2463.15 997.91 2445.67 1010.91 2427.49C1029.6 2401.21 1041.91 2372.13 1050.5 2340.87C1057.84 2314.06 1068.76 2288.23 1078.03 2261.95C1079.03 2259.18 1079.49 2256.25 1080.59 2251.9C1050.99 2265.55 1021.12 2270.18 990.71 2271.76C956.9 2273.5 924.47 2268.15 895.13 2250.15C874.066 2237.23 855.202 2221.02 839.25 2202.15C837.35 2199.91 834.94 2198.15 832.12 2195.52C819.12 2219.3 810.75 2243.29 804.3 2267.96C799.7 2285.51 796.15 2303.33 791.72 2320.96C787.47 2337.8 782.36 2354.42 778.3 2371.31C776.49 2378.58 776.41 2386.31 775.56 2393.86V2393.91Z" fill="#02020B"/>
<path d="M1178.52 2062.75C1177.73 2065.75 1177.46 2069.06 1176.08 2071.75C1149.74 2123.75 1112.01 2164.38 1059.71 2191.56C1013.64 2215.49 940.49 2208.56 902.83 2182.41C873.44 2162.02 848.29 2138.28 832.13 2105.86C826.92 2095.41 820.98 2085.33 815.51 2075.33C806.31 2074.64 801.08 2078.23 797.63 2085.8C793.94 2093.88 789.42 2101.6 785.16 2109.41C764.6 2147.07 734.06 2173.66 694.96 2190.81C675.56 2199.32 655.41 2198.41 635.3 2195.42C566.51 2185.2 524.12 2141.98 495.47 2082.17C487.06 2064.62 480.61 2046.29 477.7 2026.9C478.1 2026.97 478.7 2026.9 478.87 2027.12C503.42 2066.12 539.72 2091.24 579.87 2111.44C601.94 2122.53 624.57 2131.98 649.73 2134.44C666.96 2136.15 683.39 2132.44 701.78 2130.69C699.04 2126.55 697.05 2123.29 694.78 2120.2C663.905 2077.49 639.496 2030.47 622.34 1980.64C620.41 1975.1 620.44 1968.89 619.56 1962.99C627.56 1971.37 635.02 1980.38 643.68 1987.99C672.41 2013.33 707.02 2026.44 744.06 2033.11C804.88 2044.11 863.86 2037.66 920.14 2011.23C949.21 1997.58 974.14 1978.85 991.26 1951.01C992.005 1950.12 992.874 1949.33 993.84 1948.68C991.4 1956.68 989.62 1964.97 986.42 1972.68C968.03 2016.94 944.03 2058.03 915.57 2096.55C912.28 2101 909.33 2105.7 905.57 2111.27C920.38 2118.9 934.86 2123.74 949.4 2128.27C962.06 2132.27 974.58 2136.56 988.4 2135.44C1037.51 2131.44 1085.25 2122.03 1128.89 2098.21C1142.89 2090.56 1155.03 2079.41 1168.04 2069.91C1171.53 2067.53 1175.05 2065.17 1178.52 2062.75Z" fill="#B49B92"/>
<path d="M1668.76 1493.59C1667.82 1558.51 1645.6 1614.86 1602.09 1662.65C1575.9 1691.37 1543 1709.4 1504.26 1714.56C1460.06 1720.44 1419.96 1709.41 1384.63 1681.78C1340.42 1647.2 1315.63 1600.67 1303.94 1547.02C1290.24 1484.02 1300.49 1424.5 1337.03 1370.87C1370.41 1321.87 1417.03 1296.58 1476.91 1293.44C1528.14 1290.76 1570.76 1308.36 1606.75 1342.6C1639.38 1373.66 1658.36 1412.76 1665.11 1457.44C1666.92 1469.4 1667.58 1481.53 1668.76 1493.59Z" fill="#EDFFFF"/>
<path d="M487.69 1405.43C487.78 1362.81 517.69 1328.19 559.98 1323.07C590.27 1319.4 618.93 1323.91 642.35 1345.68C673.35 1374.56 678.85 1420.21 655.57 1458.87C620.15 1517.69 538.48 1517.1 503.27 1458.11C493.6 1441.91 487.11 1424.69 487.69 1405.43Z" fill="#FDFDFD"/>
<path d="M451.23 1653.69C451.305 1655.02 451.305 1656.36 451.23 1657.69C447.34 1680.95 437.42 1686.77 419.59 1675.12C392.72 1657.57 368.25 1637.12 358.96 1604.12C356.56 1595.58 355.15 1586.87 362.21 1580.34C369.91 1573.23 379.78 1572.65 389.53 1575.78C402.99 1580.11 413.53 1588.94 422.86 1599.19C435.86 1613.36 446.4 1628.89 450.17 1648.19C450.62 1650.46 451.07 1652.82 451.23 1653.69Z" fill="#FAFBFB"/>
<path d="M669.86 1863.54C697.51 1837.03 731.62 1824.44 768.47 1817.75C794.37 1813.04 820.28 1808.99 846.76 1812.62C867.9 1815.52 887.88 1821.11 904.84 1834.84C910.57 1839.48 915.29 1844.72 917.4 1853.06C905.31 1850.57 893.97 1848.22 882.63 1845.91C855.18 1840.31 827.54 1838.53 799.48 1839.31C776.477 1840.04 753.546 1842.26 730.83 1845.95C711.21 1849.04 692.338 1855.76 675.18 1865.76L669.86 1863.54Z" fill="#F4F7F7"/>
<path d="M669.86 1863.54L675.18 1865.76L658.28 1878.08L656.5 1875.93L669.86 1863.54Z" fill="#B49B92"/>
<path d="M821.06 2519.87C789.15 2520.87 759.4 2512.75 731.69 2497.5C672.32 2464.84 635.32 2413.99 614.45 2350.57C607.38 2329.08 602.17 2307.1 601.92 2284.23C601.92 2280.23 601.03 2276.29 600.55 2272.31C603.49 2273.23 606.65 2273.73 609.32 2275.15C614.65 2277.99 619.53 2281.68 624.91 2284.4C663.08 2303.62 703.54 2305.82 744.97 2300.05C750.1 2299.34 755.12 2297.75 760.19 2296.56C756.3 2325.24 752.75 2353.92 759.11 2382.72C761.97 2395.66 764.87 2408.58 769.49 2421.34C771.49 2412.18 773.513 2403.02 775.56 2393.86C777.07 2391.59 779.03 2389.51 780.01 2387.04C788.77 2364.81 797.41 2342.52 810.54 2322.39C818.111 2310.52 827.186 2299.67 837.54 2290.13C855.54 2314.25 874.54 2335.93 898.08 2353.55C921.62 2371.17 948 2382.69 976.5 2390C975.88 2392 975.76 2393.3 975.17 2394.27C973.71 2396.69 972.08 2399 970.46 2401.27C955.28 2423.02 936.46 2441.27 916.17 2458.19C886.91 2482.62 857.7 2507 821.06 2519.87Z" fill="#FEC18D"/>
<path d="M821.06 2519.87C857.7 2506.95 886.91 2482.62 916.17 2458.26C936.48 2441.35 955.28 2423.09 970.46 2401.34C972.08 2399.03 973.71 2396.72 975.17 2394.34C975.76 2393.34 975.88 2392.12 976.5 2390.07C948 2382.73 921.73 2371.28 898.09 2353.59C874.45 2335.9 855.53 2314.29 837.55 2290.17C827.196 2299.71 818.121 2310.56 810.55 2322.43C797.42 2342.56 788.78 2364.85 780.02 2387.08C779.02 2389.55 777.08 2391.63 775.57 2393.9C776.42 2386.35 776.5 2378.62 778.26 2371.29C782.32 2354.4 787.43 2337.78 791.68 2320.94C796.11 2303.34 799.68 2285.52 804.26 2267.94C810.71 2243.27 819.11 2219.28 832.08 2195.5C834.9 2198.09 837.31 2199.89 839.21 2202.13C855.162 2221 874.026 2237.21 895.09 2250.13C924.43 2268.13 956.86 2273.48 990.67 2271.74C1021.08 2270.16 1050.95 2265.53 1080.55 2251.88C1079.45 2256.23 1078.96 2259.16 1077.99 2261.93C1068.72 2288.21 1057.8 2314.04 1050.46 2340.85C1041.91 2372.11 1029.56 2401.19 1010.87 2427.47C997.96 2445.61 983.96 2463.09 965.87 2476.47C950.92 2487.47 935 2497.08 916.62 2501.94C897.53 2506.94 878.83 2513.77 859.54 2517.77C847.13 2520.33 833.92 2519.29 821.06 2519.87Z" fill="#B47658"/>
<path d="M760.19 2296.56C755.12 2297.75 750.1 2299.34 744.97 2300.05C703.54 2305.82 663.08 2303.62 624.91 2284.4C619.53 2281.68 614.65 2277.99 609.32 2275.15C606.65 2273.73 603.49 2273.23 600.55 2272.31V2254.5C670.1 2270.41 731.68 2255.99 785.92 2205.63C784.41 2210.5 783.62 2213.31 782.67 2216.06C774.14 2240.53 766.34 2265.19 762.27 2290.88C762 2292.83 760.9 2294.67 760.19 2296.56Z" fill="#B27758"/>
</svg>
