<svg width="38" height="38" viewBox="0 0 38 38" fill="none" xmlns="http://www.w3.org/2000/svg">
<path d="M19.0407 16.983C19.7467 16.2835 20.5757 15.8154 21.538 15.606C24.4072 14.9818 27.1825 16.8121 27.6932 19.6495C28.0496 21.6293 27.0862 23.6674 25.2961 24.7071C25.2513 24.7332 25.2064 24.7594 25.1671 24.7824C25.2989 25.0635 25.4499 25.3333 25.5557 25.6196C26.0997 27.0904 25.716 28.5494 24.5311 29.582C23.6123 30.3829 22.5244 30.8257 21.3513 31.0831C19.8498 31.4126 18.341 31.4043 16.8287 31.1568C15.495 30.9385 14.2187 30.5423 13.0177 29.9199C11.8295 29.3042 10.7711 28.5243 9.98411 27.4213C9.53093 26.7863 9.2206 26.0913 9.15787 25.302C9.07726 24.2886 9.41797 23.4247 10.0898 22.6788C10.2297 22.5234 10.3708 22.3693 10.4913 22.2367C10.2763 21.8432 10.0104 21.4448 9.82937 21.011C8.83064 18.6179 9.90349 15.863 12.2506 14.7451C14.1395 13.8455 16.363 14.1541 17.9163 15.5365C18.3375 15.9113 18.6856 16.3479 18.9623 16.8402C18.9876 16.8855 19.0121 16.931 19.0407 16.983ZM14.4316 15.4146C12.3421 15.398 10.6264 17.1014 10.6027 19.216C10.5792 21.3197 12.2946 23.0502 14.4158 23.0626C16.4857 23.0747 18.2278 21.3664 18.2435 19.3091C18.26 17.1527 16.5755 15.4316 14.4316 15.4146ZM18.9526 20.5054C18.9298 22.5921 20.6288 24.3055 22.7493 24.334C24.8225 24.362 26.5759 22.653 26.5967 20.5844C26.618 18.466 24.9392 16.7175 22.8609 16.6935C20.6945 16.6685 18.9762 18.3443 18.9526 20.5054ZM18.1803 24.2977C18.3041 24.3182 18.4069 24.3359 18.5098 24.3524C18.7323 24.3882 18.8853 24.2857 18.9242 24.0754C18.9593 23.8855 18.842 23.7318 18.6241 23.6964C18.1864 23.6252 17.7477 23.5594 17.3094 23.4909C17.1015 23.4584 16.9556 23.5553 16.9173 23.7522C16.8767 23.96 16.974 24.1014 17.1906 24.1457C17.2998 24.1682 17.4098 24.1864 17.5181 24.2063C17.4845 24.4294 17.4491 24.6298 17.4255 24.8318C17.3991 25.0565 17.5034 25.1914 17.7106 25.2179C17.9159 25.2441 18.0514 25.1334 18.0851 24.9128C18.1157 24.7124 18.1471 24.5122 18.1803 24.2977Z" fill="#52E5B2"/>
<path d="M28.898 13.2951C28.887 13.5061 28.8744 13.6726 28.8705 13.8393C28.863 14.1628 29.2296 14.408 29.5175 14.2738C29.6247 14.2238 29.7294 14.1684 29.8751 14.0956C29.8117 14.2149 29.7696 14.3 29.7224 14.3821C29.5355 14.7079 29.3497 15.0346 29.1574 15.3573C29.0827 15.4826 29.0933 15.575 29.2099 15.6682C29.4058 15.8248 29.5928 15.9926 29.7864 16.1523C29.8367 16.1938 29.8977 16.2226 29.9668 16.2651C29.8639 16.4385 29.7582 16.6165 29.6451 16.8066C29.4547 16.5863 29.2801 16.375 29.0956 16.1725C28.3506 15.3546 27.482 14.687 26.5569 14.0872C24.8924 13.0081 23.1367 12.1037 21.3114 11.3309C21.2429 11.3018 21.177 11.2505 21.1283 11.1938C20.4906 10.45 19.7025 9.92905 18.7837 9.59998C18.7648 9.59324 18.7437 9.59275 18.6929 9.58417C19.4842 10.412 19.7195 11.3783 19.549 12.4773C19.4275 12.4195 19.3728 12.3537 19.3688 12.222C19.3509 11.6485 19.239 11.0913 19.0331 10.5552C19.0142 10.5061 18.9607 10.4517 18.9114 10.4354C17.3612 9.9217 15.7873 9.50883 14.1583 9.334C13.3803 9.25045 12.6002 9.20806 11.827 9.34785C11.4817 9.4102 11.1318 9.51005 10.8161 9.66026C10.1162 9.99325 9.87839 10.5845 10.0978 11.3284C10.2811 11.9499 10.6571 12.457 11.0677 12.9423C11.158 13.049 11.253 13.1518 11.3542 13.2658C11.1816 13.3542 11.0207 13.4365 10.8486 13.5247C10.4222 13.118 10.0321 12.6774 9.69719 12.1887C9.41823 11.7816 9.18337 11.3534 9.05914 10.8707C8.82024 9.94277 9.17675 9.21553 10.0588 8.8328C10.6722 8.5667 11.3217 8.50262 11.9783 8.50446C12.8553 8.50691 13.7187 8.6369 14.5704 8.83488C14.7448 8.58765 14.904 8.33012 15.0942 8.09759C15.8096 7.22248 16.7472 6.68305 17.8138 6.35863C19.2943 5.90815 20.7964 5.90594 22.2988 6.21897C22.8794 6.33989 23.4436 6.53885 24.017 6.69665C24.0629 6.70927 24.1353 6.69383 24.1712 6.6632C24.3719 6.49168 24.588 6.4352 24.839 6.53664C25.0034 6.60305 25.1701 6.66406 25.3357 6.72728C25.6976 6.86535 25.8329 7.10842 25.7603 7.48784C26.0883 7.70077 26.4233 7.90255 26.7417 8.12761C28.0257 9.0347 29.0889 10.1438 29.7863 11.5671C29.9824 11.9674 30.1088 12.402 30.2672 12.821C30.2993 12.9059 30.2855 12.9654 30.1932 13.0086C30.0705 13.0658 29.9565 13.1417 29.8348 13.2011C29.7881 13.2238 29.7066 13.2488 29.6825 13.2269C29.6446 13.1927 29.6243 13.1186 29.6272 13.063C29.6414 12.7912 29.6614 12.5196 29.6885 12.2488C29.7029 12.1039 29.6602 12.0001 29.5409 11.9122C29.3813 11.7946 29.2319 11.6629 29.0809 11.534C28.982 11.4494 28.9071 11.4684 28.8331 11.5693C28.2924 12.3068 27.7504 13.0432 27.2075 13.779C27.1418 13.868 27.1495 13.9394 27.2345 14.0088C27.4411 14.1775 27.6473 14.3467 27.8514 14.5182C27.9537 14.6042 28.0316 14.5967 28.1076 14.4813C28.3598 14.0972 28.6167 13.7163 28.898 13.2951ZM26.1409 12.3759C26.0163 12.5222 25.9015 12.6638 25.779 12.7986C25.6926 12.8935 25.7114 12.9632 25.8104 13.028C26.0288 13.1713 26.2461 13.3157 26.4649 13.4582C26.5656 13.5237 26.6468 13.5033 26.7208 13.4062C26.8474 13.2402 26.9884 13.0849 27.1106 12.9157C27.2562 12.7139 27.4312 12.5186 27.5172 12.2916C27.6886 11.8394 27.8137 11.3691 27.9418 10.9018C27.9587 10.8402 27.9031 10.7233 27.8454 10.6826C27.5255 10.4573 27.198 10.242 26.8645 10.0372C26.7959 9.99508 26.6723 9.97597 26.6049 10.0091C26.1323 10.2412 25.6355 10.4443 25.21 10.7462C24.8059 11.0329 24.4777 11.427 24.1193 11.7769C24.0326 11.8615 24.1064 11.9195 24.1728 11.964C24.3724 12.0974 24.5759 12.2251 24.7758 12.3579C24.8891 12.4331 24.9776 12.4077 25.0626 12.3099C25.1816 12.173 25.3062 12.0409 25.4326 11.9023C25.6732 12.0632 25.9023 12.2164 26.1409 12.3759Z" fill="#52E5B2"/>
<path d="M16.1638 11.4728C16.9964 11.3926 17.8587 12.4624 17.6819 13.3633C17.371 12.559 16.8672 11.9536 16.1638 11.4728Z" fill="#52E5B2"/>
<path d="M26.6094 11.7608C26.4071 11.6235 26.2152 11.4934 26.0035 11.3498C26.2214 11.2186 26.4202 11.0896 26.6292 10.9805C26.6746 10.9568 26.7672 10.9894 26.8188 11.0244C26.8488 11.0449 26.8613 11.1291 26.846 11.1718C26.7761 11.3657 26.6935 11.555 26.6094 11.7608Z" fill="#52E5B2"/>
<path d="M29.6121 21.6477C29.603 21.4606 29.5939 21.2733 29.5848 21.0879C30.3932 20.8408 31.7656 21.1131 32.5316 22.2702C33.2612 23.3723 33.1287 24.8053 32.2021 25.7904C31.3665 26.6787 29.897 26.9159 28.8768 26.3177C28.947 26.1534 29.0181 25.9871 29.0948 25.8077C29.8558 26.0132 30.5505 25.8765 31.1493 25.3503C31.5682 24.9823 31.7939 24.5067 31.8432 23.9539C31.9476 22.7846 31.032 21.6173 29.6121 21.6477Z" fill="#52E5B2"/>
<path d="M8.04091 21.7908C8.04091 21.9497 8.04091 22.1094 8.04091 22.2704C6.98803 22.5077 5.80871 21.9252 5.28203 20.9051C4.75081 19.8764 4.98812 18.5602 5.8413 17.803C6.72732 17.0167 8.02756 16.8984 8.97459 17.5263C8.92963 17.7023 8.88344 17.8824 8.83701 18.0638C7.49377 17.5034 6.2935 18.3981 6.09466 19.4777C5.90709 20.4957 6.5906 21.7294 8.04091 21.7908Z" fill="#52E5B2"/>
<path d="M16.5834 18.4341C16.5728 18.8213 16.4806 19.1 16.1915 19.2627C15.9036 19.4248 15.612 19.3679 15.3436 19.2066C15.2114 19.1271 15.0847 19.026 14.983 18.9105C14.6767 18.5624 14.5087 18.1592 14.5917 17.6869C14.6891 17.1322 15.1804 16.8767 15.6888 17.1193C16.2679 17.3957 16.5333 17.8829 16.5834 18.4341Z" fill="#52E5B2"/>
<path d="M12.9422 21.1685C12.7592 21.1728 12.5982 21.0021 12.5929 20.7981C12.5881 20.6103 12.73 20.449 12.8993 20.4497C13.0827 20.4504 13.238 20.6243 13.2384 20.8295C13.2391 21.0169 13.1101 21.1645 12.9422 21.1685Z" fill="#52E5B2"/>
<path d="M23.1984 19.303C23.2006 18.7785 23.3978 18.4491 23.7406 18.3848C23.9203 18.3511 24.132 18.3703 24.3039 18.434C24.8975 18.6541 25.3043 19.4206 25.1866 20.0432C25.0886 20.5621 24.5853 20.8189 24.0924 20.5854C23.5134 20.3112 23.2443 19.8254 23.1984 19.303Z" fill="#52E5B2"/>
<path d="M21.8627 22.1862C21.8657 22.3822 21.7324 22.5348 21.5595 22.5332C21.384 22.5316 21.2307 22.3625 21.2262 22.1655C21.2216 21.9642 21.3455 21.8161 21.5214 21.813C21.7063 21.8097 21.8594 21.9771 21.8627 22.1862Z" fill="#52E5B2"/>
</svg>
