<svg width="41" height="41" viewBox="0 0 41 41" fill="none" xmlns="http://www.w3.org/2000/svg">
<g clip-path="url(#clip0_33_360)">
<path d="M28.015 15.4884H25.5381C25.2518 15.4884 24.9772 15.3662 24.7845 15.1509L23.7797 14.0221C23.6278 13.8533 23.4175 13.7544 23.1896 13.7544C22.9618 13.7544 22.7515 13.8533 22.5996 14.0221L21.735 14.9938C21.4546 15.308 21.0457 15.4942 20.6251 15.4942H7.06612C6.68056 16.5823 6.42936 17.7403 6.33005 18.9448H19.1295C19.3574 18.9448 19.5677 18.8517 19.7254 18.6887L20.9172 17.4493C21.0632 17.2922 21.2735 17.2049 21.4838 17.2049H21.5305C21.7584 17.2049 21.9687 17.3039 22.1206 17.4726L23.1254 18.6014C23.3182 18.8167 23.5927 18.9389 23.879 18.9389H34.3242C34.2249 17.7403 33.9737 16.5765 33.5881 15.4826L28.015 15.4884Z" fill="#52E5B2"/>
<path d="M14.0763 26.2065C14.3042 26.2065 14.5145 26.1134 14.6722 25.9505L15.8639 24.7111C16.0158 24.554 16.2203 24.4667 16.4365 24.4667H16.4832C16.711 24.4667 16.9272 24.5656 17.0732 24.7285L18.078 25.8574C18.2708 26.0727 18.5454 26.1949 18.8316 26.1949H32.9923C33.5239 25.1009 33.9094 23.9314 34.1431 22.7036H20.5491C20.2629 22.7036 19.9883 22.5814 19.7955 22.3661L18.7907 21.2489C18.6388 21.0802 18.4285 20.9871 18.2007 20.9871C17.9729 20.9871 17.7567 21.086 17.6107 21.2489L16.7461 22.2206C16.4657 22.5407 16.0567 22.7211 15.6303 22.7211H6.52283C6.7565 23.9488 7.14206 25.1184 7.67367 26.2123L14.0763 26.2065Z" fill="#52E5B2"/>
<path d="M24.1185 11.712C24.3463 11.712 24.5566 11.6189 24.7143 11.4559L25.9061 10.2165C26.0521 10.0594 26.2624 9.97215 26.4786 9.97215H26.5253C26.7532 9.97215 26.9635 10.0711 27.1153 10.2398L28.1201 11.3745C28.3129 11.5898 28.5875 11.712 28.8737 11.712H31.5668C29.0023 8.3138 24.9247 6.12012 20.333 6.12012C15.7413 6.12012 11.6578 8.3138 9.09323 11.712H24.1185Z" fill="#52E5B2"/>
<path d="M18.7148 29.6689H15.0344C14.7482 29.6689 14.4736 29.5467 14.2808 29.3314L13.276 28.2025C13.1241 28.0338 12.9138 27.9407 12.686 27.9407C12.4582 27.9407 12.242 28.0396 12.096 28.2025L11.2314 29.1743C10.951 29.4943 10.542 29.6747 10.1156 29.6747H10.0572C12.6217 32.4095 16.2729 34.126 20.333 34.126C24.3931 34.126 28.0384 32.4095 30.6088 29.6747L18.7148 29.6689Z" fill="#52E5B2"/>
</g>
<defs>
<clipPath id="clip0_33_360">
<rect width="28" height="28" fill="white" transform="translate(6.33005 6.12012)"/>
</clipPath>
</defs>
</svg>
